<svg xmlns="http://www.w3.org/2000/svg" viewBox="0 0 387.06 245.69"><defs><style>.cls-1{fill:#b9c5c5;}.cls-2{fill:#d7d7d7;}.cls-3{fill:#64cdf0;}.cls-4{fill:#64ccf0;}.cls-5{fill:#58a0c7;}.cls-6{fill:#ec513f;}.cls-7{fill:#d7d8d7;}.cls-8{fill:#d8d8d7;}.cls-9{fill:#30241c;}.cls-10{fill:#30231d;}.cls-11{fill:#31241e;}.cls-12{fill:#30241e;}.cls-13{fill:#30241f;}.cls-14{fill:#31251e;}.cls-15{fill:#f3f0f2;}.cls-16{fill:#2f211a;}.cls-17{fill:#65ccf0;}.cls-18{fill:#242423;}.cls-19{fill:#54c9ef;}.cls-20{fill:#31241f;}.cls-21{fill:#262727;}.cls-22{fill:#eb513f;}.cls-23{fill:#2f231b;}.cls-24{fill:#010101;}.cls-25{fill:#31251f;}.cls-26{fill:#e93526;}.cls-27{fill:#32261f;}.cls-28{fill:#222121;}.cls-29{fill:#312620;}.cls-30{fill:#241d1c;}.cls-31{fill:#030202;}.cls-32{fill:#322722;}.cls-33{fill:#b4c0c0;}.cls-34{fill:#2a211e;}.cls-35{fill:#252423;}.cls-36{fill:#332720;}.cls-37{fill:#2d211b;}.cls-38{fill:#3897c2;}.cls-39{fill:#4199c3;}.cls-40{fill:#292828;}.cls-41{fill:#469bc4;}.cls-42{fill:#262423;}.cls-43{fill:#31302f;}.cls-44{fill:#262626;}.cls-45{fill:#e93925;}.cls-46{fill:#040303;}.cls-47{fill:#ec5848;}.cls-48{fill:#322a26;}.cls-49{fill:#322a25;}.cls-50{fill:#3897c1;}.cls-51{fill:#332a27;}.cls-52{fill:#312925;}.cls-53{fill:#38302d;}.cls-54{fill:#362e2a;}.cls-55{fill:#2d2624;}.cls-56{fill:#342c28;}.cls-57{fill:#332b27;}.cls-58{fill:#342d29;}.cls-59{fill:#342d2a;}.cls-60{fill:#362c27;}.cls-61{fill:#302924;}.cls-62{fill:#332c29;}.cls-63{fill:#302925;}.cls-64{fill:#312c29;}.cls-65{fill:#302824;}.cls-66{fill:#2c2826;}.cls-67{fill:#332b28;}.cls-68{fill:#302f2e;}.cls-69{fill:#2e2d2b;}.cls-70{fill:#e72725;}.cls-71{fill:#24180f;}.cls-72{fill:#0a0807;}.cls-73{fill:#38302c;}.cls-74{fill:#050303;}.cls-75{fill:#29221d;}.cls-76{fill:#231f1c;}.cls-77{fill:#eb4529;}.cls-78{fill:#3d98c1;}.cls-79{fill:#221d1b;}.cls-80{fill:#110909;}.cls-81{fill:#080403;}.cls-82{fill:#020202;}.cls-83{fill:#19120f;}.cls-84{fill:#090302;}.cls-85{fill:#0b0505;}.cls-86{fill:#ea4d36;}.cls-87{fill:#060404;}.cls-88{fill:#070303;}.cls-89{fill:#e83026;}.cls-90{fill:#ee3f25;}.cls-91{fill:#ec452a;}.cls-92{fill:#eb4a35;}.cls-93{fill:#322b27;}.cls-94{fill:#35312f;}.cls-95{fill:#332a26;}.cls-96{fill:#332822;}.cls-97{fill:#362b26;}.cls-98{fill:#0d0d0d;}.cls-99{fill:#322620;}.cls-100{fill:#2e251f;}.cls-101{fill:#2d2623;}.cls-102{fill:#191717;}.cls-103{fill:#332721;}.cls-104{fill:#2f2622;}.cls-105{fill:#323130;}.cls-106{fill:#59a1c7;}.cls-107{fill:#2c1010;}.cls-108{fill:#2f2828;}.cls-109{fill:#2f2929;}.cls-110{fill:#2f2625;}.cls-111{fill:#ea432e;}.cls-112{fill:#3b322d;}.cls-113{fill:#3c332d;}.cls-114{fill:#020101;}.cls-115{fill:#282120;}.cls-116{fill:#23100b;}.cls-117{fill:#3d342e;}.cls-118{fill:#3a302b;}.cls-119{fill:#0e0606;}.cls-120{fill:#d4d3d3;}.cls-121{fill:#120806;}.cls-122{fill:#5a524f;}.cls-123{fill:#362c29;}.cls-124{fill:#362e28;}.cls-125{fill:#ec5646;}.cls-126{fill:#3a2f2b;}.cls-127{fill:#3b322c;}.cls-128{fill:#ec5645;}.cls-129{fill:#3a312c;}.cls-130{fill:#30231b;}.cls-131{fill:#3d342f;}.cls-132{fill:#3d3530;}.cls-133{fill:#372e29;}.cls-134{fill:#342923;}.cls-135{fill:#3d332e;}.cls-136{fill:#3b97c1;}.cls-137{fill:#3b302c;}.cls-138{fill:#31231d;}.cls-139{fill:#322a29;}.cls-140{fill:#322924;}.cls-141{fill:#312824;}.cls-142{fill:#302723;}.cls-143{fill:#312722;}.cls-144{fill:#2f2521;}.cls-145{fill:#352d29;}.cls-146{fill:#362c26;}.cls-147{fill:#1d1b1a;}.cls-148{fill:#eb4734;}.cls-149{fill:#16110f;}.cls-150{fill:#1c0d0d;}.cls-151{fill:#352a26;}.cls-152{fill:#31241d;}.cls-153{fill:#30231c;}.cls-154{fill:#bdbebd;}.cls-155{fill:#3c332e;}.cls-156{fill:#2b1010;}.cls-157{fill:#38302a;}.cls-158{fill:#392d29;}.cls-159{fill:#040304;}.cls-160{fill:#67cdf0;}.cls-161{fill:#b8c4c4;}.cls-162{fill:#bac5c5;}.cls-163{fill:#bbc7c7;}.cls-164{fill:#ea4731;}.cls-165{font-size:18px;fill:#ef4136;}.cls-165,.cls-176{font-family:Arial-BoldItalicMT, Arial;font-weight:700;font-style:italic;}.cls-166{fill:none;stroke:#d1d3d4;stroke-miterlimit:10;stroke-width:10px;}.cls-167{fill:#d7d7d6;}.cls-168{fill:#1f1e1e;}.cls-169{fill:#1a1818;}.cls-170{fill:#2e2019;}.cls-171{fill:#1c1918;}.cls-172{fill:#3a302c;}.cls-173{fill:#372c28;}.cls-174{fill:#3b312d;}.cls-175{fill:#261e1d;}.cls-176{font-size:17px;fill:#27aae1;}</style></defs><title>Asset 1</title><g id="Layer_2" data-name="Layer 2"><g id="Layer_1-2" data-name="Layer 1"><path class="cls-1" d="M108.54,197.25l0-39.11v-2.26h37.8l8.07,9.22c-11.39,0-22.94,0-34.49,0a10.94,10.94,0,0,0-1.86.31,10.62,10.62,0,0,0-.28,1.75c0,4.55,0,9.1,0,13.64,0,1,.16,2,.25,3a3,3,0,0,0,1,.37c1.67,0,3.35-.17,5-.27.23.11.46.31.69.31,2.71,0,5.41,0,8.11-.06h9.86l12.53,0c.13-.2.37-.39.37-.59,0-3.61,0-7.21,0-10.82,0-.26-.26-.51-.39-.77,1-1,.51-2.32.64-3.5v-2.22l9.21,6.12a8.54,8.54,0,0,0-.3,1.54q0,28.71,0,57.42a8.27,8.27,0,0,0,.3,1.53c-.65,7.47-5.41,12.58-13.3,12.83-.93,0-1.86,0-2.79,0l-2.14-.66c-4.81-1.51-8.28-4.35-9.42-9.49-.28-1.31-.5-2.62-.76-4H108.57q0-4.11,0-8.22h4.6V221H104c.77-.11,1.54-.26,2.32-.32s1.38,0,2.18,0l.12-2c-1.07,0-2,0-3,0a11.72,11.72,0,0,1-1.65-.32h35.19v-2.18H123q-7.22,0-14.43-.07l0-2.28c.54,0,1.09-.05,1.64-.05H155.6v-2.12c-.7-.07-1.37-.2-2-.2H117.9c-3.12,0-6.24,0-9.36-.05l0-2.28h12.85v-2.26H104c.77-.11,1.54-.26,2.31-.32s1.38,0,2.19,0c0-.67.07-1.19.12-2-1.06,0-2,0-3,0a11.86,11.86,0,0,1-1.66-.32h47V202H114.31c-1.92,0-3.83,0-5.74-.06l0-2.28c.55,0,1.09-.05,1.64-.05h45.49c-.14-1,.43-1.9-.75-2.27-.65,0-1.31-.06-2-.06h-31.8Z"/><path class="cls-2" d="M339.41,149.33a29.33,29.33,0,0,1-7.28,20.24c-1.24,1.43-2.67,2.69-4,4-.42.43-.8.89-1.2,1.33l-10-9.83-2,1.56,10,9.63c-1.47.69-2.95,1.37-4.42,2.07a31.41,31.41,0,0,1-33.71-5.55,31.57,31.57,0,0,1-7.07-9.13,34,34,0,0,1-3.13-10.43,30,30,0,0,1,3.29-18.51,30.84,30.84,0,0,1,17-15,27.53,27.53,0,0,1,11-1.94v31.56Zm-33.5-22.8c.29-.82.51-1.45.77-2.16l-2.15-.79c-.27.76-.5,1.39-.77,2.11Zm-7-5.07-2.14-.8-.81,2.17,2.18.7Z"/><path class="cls-2" d="M226.61,8.23a10.33,10.33,0,0,0,.33-1.08c1-4.69,4.69-7,9-7.08C248-.06,260,0,272,0c-.12.1-.25.27-.38.28-4.08.35-7,5.09-6.9,8.85.16,7.21.05,14.42,0,21.63a19.61,19.61,0,0,1-.31,2.41c0,6.3-.06,12.6,0,18.9.07,4.9-2.93,8.53-7.94,9.09a34.34,34.34,0,0,1-4.06.31q-12.81,0-25.63,0a12.41,12.41,0,0,1-1.88-.29h27.33c-4.56-1.36-6.55-4.59-6.77-9.23H226.61v-3.3c-1.68,0-3.45,0-5.23,0a9,9,0,0,1-1.67-.33h17.48V46H226.6V43.73h4.74V41.46H219.7a7.58,7.58,0,0,1,1.51-.33c1.79,0,3.58,0,5.39,0V34.28l2.32-.1V32.11l-2.32-.25c0-.77,0-1.53,0-2.3h15.09V27.31h-22a8,8,0,0,1,1.5-.32c1.79,0,3.58,0,5.44,0V25c-1.78,0-3.61,0-5.44,0a7.34,7.34,0,0,1-1.5-.33h25.64v-2a13.28,13.28,0,0,0-1.54-.22l-17.18-.07c0-.76,0-1.53,0-2.29L236.8,20l.66-2.22H219.71a7.52,7.52,0,0,1,1.52-.33c1.69,0,3.38,0,5.28,0l.09-1.92h-7.1V12.84h7l.3-2c-1.82,0-3.6,0-5.37,0a8.91,8.91,0,0,1-1.68-.33h21V8.23ZM254.56,20c.19-.69.39-1.38.6-2.14h-5c.56.76-.54,1.78.77,2.14Zm-.33,23.7.69-.08v-2H250.3c.1.62.21,1.31.31,2Zm.63-14.44c0-.65.07-1.31.1-1.94H250.2l.25,2Zm-4.41,2.84v2h4.45v-2ZM219.76,15.17H231.3v-2H219.76Zm30.69,31v2.18h4.46V46.13Zm4.45-32.94h-4.42v2h4.42Z"/><path class="cls-3" d="M246,183.1c-.81-.93-1.6-1.9-2.46-2.78-1.11-1.13-2.27-2.2-3.46-3.34l1.63-2,6.59-6.56,1.71-1.41,27,27.06c2.41,0,4.54,0,6.67,0a17.36,17.36,0,0,1,1.75.2c-2.17,0-4.34,0-6.51.09a2,2,0,0,0-.76.33l7.57,7.56a1.23,1.23,0,0,0,.27,0s.07-.08.07-.12c0-2.6,0-5.21.05-7.81.09.85.23,1.7.25,2.55,0,2,0,4.05,0,6l13.62,13.59L290,226.61l-8.79-8.6a4.21,4.21,0,0,0-.38-.53Q270.37,207.07,260,196.67a7.91,7.91,0,0,0-1.05-.74l-.09-.57c0-3.61,0-7.22,0-10.82a5.54,5.54,0,0,0-.33-1.35l-12.48,0Z"/><path class="cls-3" d="M48.66,73.88c-.13-7.12,5.7-11.3,12.08-9.2a12.36,12.36,0,0,1,15-7.28,12.37,12.37,0,0,1,8.5,14.37,30.27,30.27,0,0,1,3,2.13,5.78,5.78,0,0,1,1.56,6.6,6.2,6.2,0,0,1-6,4.36c-3.56,0-7.12,0-10.68,0H48.55A5.34,5.34,0,0,1,43,80.34a5.45,5.45,0,0,1,3.68-6C47.29,74.16,47.93,74,48.66,73.88Z"/><path class="cls-2" d="M108.57,231.52h28.12c.26,1.36.48,2.67.76,4,1.14,5.14,4.61,8,9.42,9.49l2.14.66c-18.41,0-36.82.11-55.23-.05-6,0-10.47-3.79-12.16-10.28-.29-1.14-.43-2.33-.7-3.8Z"/><path class="cls-4" d="M339.41,149.33H307.87V117.77A30.64,30.64,0,0,1,328,124.89a29.47,29.47,0,0,1,8.17,10.32l-1.37,2.31,2.6.28A28.6,28.6,0,0,1,339.41,149.33Zm-12.22-14.91,2.18.79c.27-.78.49-1.42.73-2.15l-2.11-.74Zm-14.78-8c-.27.69-.53,1.34-.83,2.12l2.1.83c.3-.77.54-1.4.8-2.1Zm7.75,2.94c-.28.78-.51,1.41-.75,2.09l2.11.82.8-2.13Z"/><path class="cls-2" d="M118,33.22a23.26,23.26,0,0,1,23.72,23.54,23.63,23.63,0,1,1-47.26-.31C94.51,43.59,105.34,32.79,118,33.22Zm18.88,23.37c.46-9.84-8.55-18.87-18.65-18.81a18.93,18.93,0,1,0-.26,37.85C128.21,75.74,137.22,67.21,136.84,56.59Z"/><path class="cls-1" d="M264.43,33.2a19.61,19.61,0,0,0,.31-2.41c0-7.21.13-14.42,0-21.63-.09-3.76,2.82-8.5,6.9-8.85.13,0,.26-.18.38-.28a28.6,28.6,0,0,1,5.45.65c4.24,1.33,5.87,4.66,6.07,8.87,0,4.48,0,9,0,13.46A10.44,10.44,0,0,0,285,29.07a8.66,8.66,0,0,0,5.07,3.83h-1.63q-11,0-22,0a10.09,10.09,0,0,0-1.72.27Z"/><path class="cls-5" d="M387.06,110.5c-1,3.27-1.84,6.64-3.14,9.81-2.53,6.17-5.34,12.23-8,18.34-.05.13-.18.23-.4.49-.79-1.66-1.56-3.21-2.27-4.78-3.2-7.08-6.43-14.14-8.71-21.59a12,12,0,0,1,1.87-11.48,11.81,11.81,0,0,1,12.08-4,11.31,11.31,0,0,1,8.61,9.3Zm-5.49-1.87a6,6,0,0,0-6-6,6.08,6.08,0,1,0,.09,12.15A6,6,0,0,0,381.57,108.63Z"/><path class="cls-3" d="M204.88,28.31a26.75,26.75,0,0,1-6,17.64A26.94,26.94,0,0,1,182.61,56a27.75,27.75,0,0,1-24-5.79c-.72-.58-1.35-1.26-2-1.89l6.24-6.23c.25.19.53.38.76.59A19.44,19.44,0,0,0,190,42.36a19.72,19.72,0,0,0,6-14Z"/><path class="cls-6" d="M23.32,152.58a67.55,67.55,0,0,1-4.77,14.06c-2,4.74-4.19,9.4-6.3,14.09a3.86,3.86,0,0,1-.46.6,4.48,4.48,0,0,1-.65-.76,211.28,211.28,0,0,1-10-23.86c-1-3.16-1.72-6.33-.44-9.61a10.73,10.73,0,0,1,7-6.89,12.11,12.11,0,0,1,7.8,0c4.67,1.67,7,4.79,7.83,9.41Zm-9.82-7.3a2.87,2.87,0,0,0-3.59,0l-.59.29a6.06,6.06,0,0,0-1.43,10.32,14,14,0,0,1,1.24,1.16c.85.07,1.61.16,2.38.19a6.06,6.06,0,0,0,6.3-6.18C17.74,148.17,16.07,146.39,13.5,145.28Z"/><path class="cls-3" d="M307.19,43.1c.23-.1.46-.29.69-.29q3.89,0,7.79,0c.23,0,.46.19.69.29h-8.17v.42h7.75V94H307.5v-2q0-23.49,0-47A12.32,12.32,0,0,0,307.19,43.1Z"/><path class="cls-2" d="M264.75,33.19a10.09,10.09,0,0,1,1.72-.27q11,0,22,0h1.63A8.66,8.66,0,0,1,285,29.07,10.44,10.44,0,0,1,283.48,23c.07-4.49,0-9,0-13.46l25.64,0a3.25,3.25,0,0,1-.53.32,8.37,8.37,0,0,0-5.6,5.65c-1,2.79-.64,5.68-.82,8.53a26.16,26.16,0,0,1-.94,4.22,8.29,8.29,0,0,1-7.56,4.6C284.05,33,274.4,33.09,264.75,33.19Z"/><path class="cls-5" d="M258.9,195.93a7.91,7.91,0,0,1,1.05.74q10.43,10.4,20.83,20.81a4.21,4.21,0,0,1,.38.53l-39.1,0v-8.55H258.9Z"/><path class="cls-1" d="M301.26,28.29a26.16,26.16,0,0,0,.94-4.22c.18-2.85-.19-5.74.82-8.53a8.37,8.37,0,0,1,5.6-5.65,3.25,3.25,0,0,0,.53-.32c2.17-.05,4.36-.19,6.44.65A7.92,7.92,0,0,1,321,17.11c.11,1.12.13,2.27.35,3.37.43,2.16,1.15,4.26,2.95,5.65a29.45,29.45,0,0,0,3.9,2.16Z"/><path class="cls-2" d="M240.84,245.58H222l9.21-32.23.36,0C234.65,224,237.71,234.65,240.84,245.58Z"/><path class="cls-2" d="M149.24,18.82a5.38,5.38,0,0,0,1.06-1.26,26.65,26.65,0,0,1,6.09-9.2c4.45-4.34,9.7-7.32,16-8,1.4-.15,2.81-.21,4.21-.31V8.89c-1,.11-2.06.2-3.08.33a18,18,0,0,0-10.15,4.87,19.28,19.28,0,0,0-6.25,14.28l-6.48-.09C153.32,24.6,152.83,21.42,149.24,18.82Z"/><path class="cls-6" d="M200.71,237.38q2.22-7.6,4.45-15.22c.77-2.61,1.55-5.21,2.33-7.82l.59,1,.16-.64q1.84,6.26,3.67,12.52,2.53,8.81,5,17.6c.07.25.1.52.17.9-4.61,0-9.14,0-13.67,0-1.68,0-3.37-.1-5.06-.15Q199.55,241.44,200.71,237.38Z"/><path class="cls-4" d="M200.71,237.38q-1.17,4.06-2.32,8.14c-1.41,0-2.82.14-4.23.15-3.22,0-6.44,0-9.93,0,3.12-10.91,6.18-21.66,9.25-32.41l.32,0Z"/><path class="cls-1" d="M226.61,52H245.5c.22,4.64,2.21,7.87,6.77,9.23H224.94c-4.17-.24-7.69-4.32-7.43-9.23Z"/><path class="cls-1" d="M288,94.35h-9.24V71.15H288Z"/><path class="cls-2" d="M70.4,197.63a9.77,9.77,0,0,1,16.38-6.33,9.22,9.22,0,0,1,2.6,10,9.08,9.08,0,0,1-7.4,6.57c-.37.07-.74.17-1.1.26.06-.37.11-.75.18-1.13a8.19,8.19,0,0,0-8.55-9.7C71.8,197.36,71.11,197.53,70.4,197.63Z"/><path class="cls-1" d="M176.64,8.89V0a27.11,27.11,0,0,1,19.12,7.42L197,8.52a7.61,7.61,0,0,0-1.3.84c-1.78,1.69-3.52,3.42-5.27,5.14C186.45,11.05,182,8.92,176.64,8.89Z"/><path class="cls-5" d="M150.68,28.28l6.48.09c.08,1,.11,2,.25,2.94a20.24,20.24,0,0,0,5.4,10.82l-6.24,6.23a27.2,27.2,0,0,1-7.9-15c-.2-1.06-.3-2.15-.46-3.29l-.74-.17.86-.31Z"/><path class="cls-6" d="M190.4,14.5c1.75-1.72,3.49-3.45,5.27-5.14a7.61,7.61,0,0,1,1.3-.84,28.64,28.64,0,0,1,7.47,14.6c.3,1.7.3,3.46.44,5.19h-8.81c-.32-2-.52-4-1-5.91C194.29,19.35,192.38,16.89,190.4,14.5Z"/><path class="cls-7" d="M304.69,207.85c-3.72.28-7.1-3.34-7.09-6.86a7.08,7.08,0,0,1,7.07-7.25,7,7,0,0,1,7.08,7.24A6.91,6.91,0,0,1,304.69,207.85Z"/><path class="cls-8" d="M328.2,28.29a29.45,29.45,0,0,1-3.9-2.16c-1.8-1.39-2.52-3.49-2.95-5.65-.22-1.1-.24-2.25-.35-3.37.18.49.35,1,.58,1.65h18.2c.59,2.5-1,6.29-3.26,7.86a9.51,9.51,0,0,1-5.85,1.69C329.85,28.29,329,28.29,328.2,28.29Z"/><path class="cls-7" d="M273.84,94.31h-9.29V80.43h9.29Z"/><path class="cls-1" d="M248.34,168.44,241.75,175q-4.26-4.2-8.54-8.38c-.43-.42-.89-.8-1.34-1.19a4.82,4.82,0,0,1,.62-1.09c1.67-1.71,3.36-3.41,5.09-5.07.28-.27.79-.29,1.2-.42Z"/><path class="cls-1" d="M62.58,137.13H66v18.66H47.2v-3.2c-1.48,0-2.84,0-4.2,0a10.3,10.3,0,0,1-1.53-.29l2.44,0,18.27,0a7.17,7.17,0,0,0,.31-1.43C62.54,146.25,62.55,141.69,62.58,137.13Z"/><path class="cls-9" d="M108.54,211.41c3.12,0,6.24.05,9.36.05h35.66c.67,0,1.34.13,2,.2v2.12H110.18c-.55,0-1.1,0-1.64.05H104v-2.43Z"/><path class="cls-10" d="M324.87,176.3l-10-9.63,2-1.56,10,9.83,10.9,10.52H365.7v2l-29.38,0-.36-.33H365.3c0-.57-.06-.9-.08-1.27H337.28c.16.12.2.18.24.18l26.46.07a4,4,0,0,1,.49,0,1.21,1.21,0,0,1,.3.11.21.21,0,0,1,.08.12,2.13,2.13,0,0,1,0,.4h-1.71q-12.66,0-25.31,0a10.43,10.43,0,0,0-1.89.34l-9.76-9.64C325.76,177.1,325.31,176.71,324.87,176.3Z"/><path class="cls-11" d="M62.58,137.13c0,4.56,0,9.12-.09,13.69a7.17,7.17,0,0,1-.31,1.43,9.91,9.91,0,0,0-1.7-.29c-4.14,0-8.29,0-12.44,0a11,11,0,0,0-1.7-.31c-1.34,0-2.69,0-4.06,0V131.89h1.95q8,0,15.93,0a9.11,9.11,0,0,0,1.69-.31l.34-.3a11.75,11.75,0,0,1,.29,1.55C62.54,134.25,62.55,135.69,62.58,137.13Zm-19.47-3.6a3.68,3.68,0,0,0-.31,1q0,7.19,0,14.38a3.68,3.68,0,0,0,.31,1l.41,0,3.55,0,13.12,0a4.48,4.48,0,0,0,.34-1.18q0-7.2,0-14.4a4.83,4.83,0,0,0-.31-1.2v-.32a4.83,4.83,0,0,0-1.2-.31q-7,0-14.05,0a4.65,4.65,0,0,0-1.19.31,1.11,1.11,0,0,0,0,.26s.09.05.13.05l16.28,0v.34c-3.55,0-7.1-.11-10.64-.12-2,0-4,.08-6.06.12Zm.67,16.85,0,.16H59.91v-.16Zm18-17.81h-.16v4h.16Z"/><path class="cls-12" d="M70.4,197.63c.71-.1,1.4-.27,2.11-.31a8.19,8.19,0,0,1,8.55,9.7c-.07.38-.12.76-.18,1.13a8.52,8.52,0,0,1-5.6,5.28,8.09,8.09,0,0,1-10-5.27,3,3,0,0,0,.23-.74c0-1.25,0-2.5,0-3.76a2.94,2.94,0,0,0-.23-.73C66,200.24,68,198.72,70.4,197.63Zm8.52,6.66c-.2-.43-.39-.87-.59-1.31-1.3-2.85-5.14-4.36-7.92-2.7a5.76,5.76,0,0,0-3.25,6.47,6.05,6.05,0,0,0,5.06,4.68,5.64,5.64,0,0,0,6.12-3.57l.58-1.07a.6.6,0,0,0,.12.11.24.24,0,0,0,.14,0C79.1,206,79,205.16,78.92,204.29Z"/><path class="cls-11" d="M51.21,188.06l5.33-.3v2c-1,0-2.07,0-3.11,0a5.08,5.08,0,0,0-.84.19l.08.14q-4.71,9.38-9.44,18.74l-.8,1.57c-2-3.89-3.78-7.56-5.69-11.36l2-1.08c1.22,2.39,2.41,4.74,3.69,7.27.29-.52.54-.92.74-1.33l7.19-14.35c.19-.39.44-.75.66-1.12h4.91v-.38Z"/><path class="cls-13" d="M128,29.79l-1.25-1.24L150.41,4.94l1.16,1.32Z"/><path class="cls-14" d="M154.92,197.36c1.18.37.61,1.31.75,2.27H110.18c-.55,0-1.09,0-1.64.05l-4.25-.11a13.62,13.62,0,0,1,1.89-.26q23.35,0,46.69,0h1.76V199H104.4l-.09-1h37c4.05,0,8.11,0,12.16,0C154,198,154.75,198.3,154.92,197.36Z"/><path class="cls-6" d="M316.61,217.31c0-2.25,1.77-4.47,3.53-4.5,3.68-.05,5.88,1.69,5.76,4.63a4.77,4.77,0,0,1-4.71,4.58A4.54,4.54,0,0,1,316.61,217.31Z"/><path class="cls-11" d="M17.53,193.63a5.81,5.81,0,1,1-11.61.11,5.81,5.81,0,1,1,11.61-.11Zm-6.88,3.64s-.08.07-.1.12a.59.59,0,0,0,0,.14l2.26-.25c.36-.23.74-.44,1.09-.69a3.6,3.6,0,0,0,1.26-4,3.66,3.66,0,0,0-3.48-2.51,3.73,3.73,0,0,0-3.34,2.48,3.63,3.63,0,0,0,1.25,4C9.91,196.83,10.29,197,10.65,197.27Z"/><path class="cls-12" d="M81.58,164.47a5.67,5.67,0,0,1,4.49,6.12,5.85,5.85,0,0,1-11.62.43,5.78,5.78,0,0,1,4.2-6.5Zm-1.34,9.19a3.68,3.68,0,0,0,3.62-3.49,3.8,3.8,0,0,0-3.61-3.71,3.69,3.69,0,0,0-3.57,3.71A3.53,3.53,0,0,0,80.24,173.66Z"/><path class="cls-12" d="M178.68,187.15a5.8,5.8,0,0,1,6.2-4,5.91,5.91,0,0,1,5.18,5.47,5.79,5.79,0,0,1-3.87,5.84,5.66,5.66,0,0,1-7.53-3.75Zm5.54-1.71a3.61,3.61,0,0,0-3.62,3.45,3.6,3.6,0,1,0,7.19.07A3.63,3.63,0,0,0,184.22,185.44Z"/><path class="cls-11" d="M127,7.92a4.42,4.42,0,0,1,2.76-3,9.18,9.18,0,0,1,4-.5c2.6.33,4.45,2.86,4.46,5.66A5.79,5.79,0,0,1,127,12.17a2.9,2.9,0,0,0,.24-.72c0-.94,0-1.87,0-2.8A2.84,2.84,0,0,0,127,7.92Zm1.84,2.17a3.54,3.54,0,0,0,3.53,3.52A3.72,3.72,0,0,0,136.07,10a3.82,3.82,0,0,0-3.6-3.56A3.64,3.64,0,0,0,128.88,10.09Z"/><path class="cls-12" d="M150.68,28.28l-2.35,1.28-4.58-.36a5.79,5.79,0,0,1-2.64-7.52,5.89,5.89,0,0,1,7.21-3.18c.31.09.61.21.92.32C152.83,21.42,153.32,24.6,150.68,28.28ZM148.34,27c2-1.47,2.27-3.37.67-5.27-1.59-1.57-3.34-1.69-4.89-.34a3.56,3.56,0,0,0-.52,4.85A3.37,3.37,0,0,0,148.34,27Z"/><path class="cls-12" d="M374,156.79a5.78,5.78,0,0,1-4.25-6A5.85,5.85,0,0,1,381,149c1.52,3.73-1.07,7.47-4.08,7.85Zm-2-4.57c.65,1.57,2,2.28,3.42,3,.63-.28,1.23-.52,1.8-.82a3.63,3.63,0,0,0,1.87-4,3.73,3.73,0,0,0-3.66-2.72c-1.72,0-2.6,1.16-3.4,2.44a.26.26,0,0,0-.25-.14C371.85,150.7,371.92,151.46,372,152.22Z"/><path class="cls-11" d="M268.47,111.52a5.79,5.79,0,0,1,6.23-4,5.86,5.86,0,0,1,5.11,5.37,5.74,5.74,0,0,1-4.22,6h-3.26a5.26,5.26,0,0,1-3.9-3.87C268.44,113.91,268.46,112.71,268.47,111.52Zm9.09,1.83a3.6,3.6,0,0,0-7.19.15c0,1.71,2,3.85,3.59,3.87S277.59,115.14,277.56,113.35Z"/><path class="cls-15" d="M86.22,147.65a6.79,6.79,0,0,1-.35-1.5q0-25.71,0-51.43c0-.48.06-1,.1-1.54h37.93v54.73c-.6,0-1.13.09-1.67.09q-17.16,0-34.34,0a8.4,8.4,0,0,1-1.67-.34h.15l.14-.05c.6,0,1.2.07,1.8.07h29.34c1.92,0,3.83,0,5.74-.07a7.45,7.45,0,0,0,.37-1.57q0-25.56,0-51.12V93.49H86.16v53C86.16,146.89,86.2,147.27,86.22,147.65Z"/><path class="cls-16" d="M154.92,197.36c-.17.94-.92.61-1.45.61-4.05,0-8.11,0-12.16,0h-37l.09,1h50.23v.35h-1.76q-23.34,0-46.69,0a13.62,13.62,0,0,0-1.89.26l-.57-2.32h4.82l12.62.05H153C153.61,197.3,154.27,197.34,154.92,197.36Z"/><path class="cls-17" d="M32.67,106.81c.1-1.07.21-2.13.28-3.21,0-.58,0-1.17,0-1.87h7.23v4.18l0,2.62c-1.5,0-3,0-4.51.06a17.63,17.63,0,0,0-1.89.29l-.66-.27Z"/><path class="cls-2" d="M24.05,117.1c-.32,1-.63,2-1,3.17H16.58v-3.12l-1.09-.68,1.09-.08-.45-2.25a2.43,2.43,0,0,1,.25-.2c1.12-.81,6.35-.65,7.41.23a.76.76,0,0,0,0,.3Z"/><path class="cls-1" d="M58.89,114.44l-1,3.51H51.54c-.62-1.1.41-2.59-.86-3.49,1.15-.75.63-1.68.28-2.6.24-.21.48-.62.71-.62,2.32.06,4.63.19,6.95.29a1.08,1.08,0,0,0,0,.31Z"/><path class="cls-18" d="M108.57,202c1.91,0,3.82.06,5.74.06H151v2.2H104V202Zm-4.17,1.85h46.15l-.05-1.11H104.4Z"/><path class="cls-2" d="M344.62,89.93v4.33h-9.05V89.93Z"/><path class="cls-13" d="M58.61,111.84a1.08,1.08,0,0,1,0-.31l13.27-11c.38-.31.78-.6,1.16-.89l.13,1.84.85.16L59.36,113.85Z"/><path class="cls-19" d="M307.19,43.1a12.32,12.32,0,0,1,.3,1.87q0,23.49,0,47v2h8.44V43.52h-7.75V43.1h8.17c0,1.81.05,3.61.05,5.42V94.3h-9.15c0-.42-.11-.84-.11-1.26q0-24.63,0-49.28C307.14,43.54,307.17,43.32,307.19,43.1Z"/><path class="cls-20" d="M71.68,39l2.57-3L76,37.72l-2.86,2.33,3.22,2.35-2.09,1.69-2.36-2.63-2.24,3.19L67.87,42.4l2.52-2.08-2.9-2.4,1.68-1.79Z"/><path class="cls-6" d="M6.91,109.53,7.17,112c0,.74,0,1.47-.08,2.21l-.19.87L1,115.1l-.45-5.57Z"/><path class="cls-21" d="M108.58,216.12q7.22,0,14.43.07h16.14v2.18H104v-2Zm30.1.7h-34.3l.05,1.11h34.25Z"/><path class="cls-22" d="M74,101.67l-.85-.16-.13-1.84.27-.42.36.41c.19-1.4.38-2.8.56-4.15h5v5.06c-1.17,0-2.24,0-3.31,0a7.72,7.72,0,0,0-1.52.39l5.57.41V94.72c.09,1,.22,2.09.27,3.14s0,2.29,0,3.62Z"/><path class="cls-23" d="M245.34,22.71v2H219.7l.09-2Zm-.84.75V24H220.35v.2H245l-.06-1.08H220.38v.31Z"/><path class="cls-24" d="M211.59,209.23a1.62,1.62,0,0,1-.14-.46V183.15h33c.54,0,1.09,0,1.63-.05l0,.13v.28H211.93v25.33h29.48a2.81,2.81,0,0,1,0,.29v.12c-2.29,0-4.58-.08-6.87-.08Q223.06,209.19,211.59,209.23Z"/><path class="cls-25" d="M51,111.86c.35.92.87,1.85-.28,2.6l-10.52-5.93,0-2.62Z"/><path class="cls-26" d="M321.38,66.28h9.1v28h-9.1Zm8.49,27.78a6.19,6.19,0,0,0,.31-1.36q0-12.24,0-24.47a12.93,12.93,0,0,0-.12-1.32h-8.32V94.05h8.12Z"/><path class="cls-25" d="M23.77,114.47a.76.76,0,0,1,0-.3l8.88-7.36.43,1.8.66.27-9.22,7.6Z"/><path class="cls-27" d="M236.8,20l-10.2.11c-2,0-4,0-5.95-.08a3.66,3.66,0,0,1-.92-.3h16.38v-.37h-16l.08-1.05H236.8Z"/><path class="cls-28" d="M219.7,27.31h22v2.25h-22Zm.34,1.33c.24.1.47.3.71.3q10.09,0,20.2,0c.09,0,.18-.09.38-.2l-.11-.95a3.79,3.79,0,0,0-.6-.09q-9.78,0-19.54,0a3.65,3.65,0,0,0-1,.31Z"/><path class="cls-29" d="M7.09,114.25,7.17,112l9,2.1.45,2.25-1.09.08Z"/><path class="cls-30" d="M226.61,8.23h14.14v2.3h-21V8.23Zm-6.49,1.89h20.23L240.24,9H220.12Z"/><path class="cls-31" d="M62.19,131.26l-.34.3H41.91v20.38H48c4.15,0,8.3,0,12.44,0a9.91,9.91,0,0,1,1.7.29l-18.27,0-2.44,0c0-4-.07-8.11-.09-12.16,0-2.9,0-5.8,0-8.87Z"/><path class="cls-32" d="M260.83,154.54l3.55.44v1.93l-3.54.35-.16-.22-.2.17-.54,2.47h-.24l-.53-2.47h0l-.65-.67L256,156v-.24l2.47-.53.65-.67v-2.81h1.33c0,.75,0,1.4,0,2A2.22,2.22,0,0,0,260.83,154.54Z"/><path class="cls-33" d="M165.1,172.34q0,29.11,0,58.22c0,.66,0,1.31,0,2,0,.1,0,.2,0,.3a8.27,8.27,0,0,1-.3-1.53q0-28.71,0-57.42A8.54,8.54,0,0,1,165.1,172.34Z"/><path class="cls-34" d="M226.6,46h10.59v2.32H219.71V46Zm10.08.78H220.13l.06,1.12h16.49Z"/><path class="cls-35" d="M104,206.87h17.46v2.26H104Zm.45,1.54H121l-.06-1.1H104.41Z"/><path class="cls-36" d="M226.6,31.86l2.32.25v2.07l-2.32.1-6.56-.1a13.33,13.33,0,0,1,1.88-.28c2,0,4,0,6,0v-.37h-7.74L220,32Z"/><path class="cls-37" d="M236.8,20V18.33H220.19l-.08,1.05h16v.37H219.73c0-.65,0-1.3,0-1.95h17.75Z"/><path class="cls-38" d="M302.21,94.07c-.21.12-.42.33-.63.34-2.78,0-5.57,0-8.47,0V61.84c2.94,0,5.87,0,8.8,0,.1,0,.2.2.3.31h-8.73v31.9h8.73Z"/><path class="cls-39" d="M258.9,195.93v13.51H242.06V218l-.16,0-.15-.07c0-2.13,0-4.26,0-6.38a17.65,17.65,0,0,0-.25-2l-.08-.09a.28.28,0,0,0,0-.18v-.12l14.25.11h2.93V195.35h.23Z"/><path class="cls-40" d="M219.7,41.46h11.65v2.27H219.7Zm11.07.41H220.18V43h10.59Z"/><path class="cls-41" d="M302.21,94.07h-.3V62.17h.3Z"/><path class="cls-42" d="M104,221h9.2v2.28H104Zm8.81.42h-8.45l.17,1.12h8.21Z"/><path class="cls-5" d="M241.4,209.25a.28.28,0,0,1,0,.18H213.16a12,12,0,0,1-1.57-.19q11.46,0,22.94-.06C236.82,209.17,239.11,209.22,241.4,209.25Z"/><path class="cls-43" d="M336.32,187.5l29.38,0a5.33,5.33,0,0,1-1,.21q-13.62,0-27.24,0A7,7,0,0,1,336.32,187.5Z"/><path class="cls-44" d="M245.34,22.71H219.79l4.74-.21,2.09-.09,17.18.07A13.28,13.28,0,0,1,245.34,22.71Z"/><path class="cls-45" d="M79.93,94.72v6.67L74.36,101h5.13V95.16H73.68v4.5l-.36-.41V94.72Z"/><path class="cls-46" d="M330.83,44.09V42.16H340v1.93Zm8.9-.66v-.66c-.12-.1-.25-.27-.37-.28h-8.05v1.23c2.75,0,5.4,0,8.05,0C339.48,43.7,339.61,43.52,339.73,43.43Z"/><path class="cls-47" d="M6.91,109.53H.57L1,115.1a1.22,1.22,0,0,0,0,.27.23.23,0,0,0,.14.06H6.89a2.38,2.38,0,0,1-.8.3c-1.8,0-3.61,0-5.41,0-.21,0-.42-.2-.62-.31a9,9,0,0,0,.29-1.52c0-1.52,0-3,0-4.73H6.9Z"/><path class="cls-48" d="M254.89,128l1.45,1.74-1.7,1.49-1.56-1.7Z"/><path class="cls-49" d="M259.49,124.06l1.83-1.48,1.45,1.73L261,125.79C260.52,125.23,260.07,124.72,259.49,124.06Z"/><path class="cls-50" d="M286.17,194.37c0,2.6,0,5.21-.05,7.81,0,0,0,.12-.07.12a1.23,1.23,0,0,1-.27,0v-7.56h-7.57a2,2,0,0,1,.76-.33c2.17,0,4.34-.06,6.51-.09Z"/><path class="cls-51" d="M190.47,185.26l-1.5-1.78,1.77-1.45,1.45,1.68Z"/><path class="cls-52" d="M269.16,118.9l-1.7,1.52-1.53-1.76,1.8-1.45Z"/><path class="cls-53" d="M290.27,120.64l-2.11-.73c.24-.71.45-1.35.72-2.14l2.17.77Z"/><path class="cls-54" d="M33.26,185.12l2.13-.75.7,2.1-2,.79Z"/><path class="cls-55" d="M337.38,137.8l-2.6-.28,1.37-2.31,1.68.81Z"/><path class="cls-48" d="M361.38,144.75l-.77,2.09-2.15-.81c.28-.74.52-1.37.81-2.11Z"/><path class="cls-56" d="M369.23,147.65c-.33.82-.57,1.4-.84,2.09l-2.1-.8.8-2.09Z"/><path class="cls-57" d="M40.93,182.47l2.08-.71.78,2-2.06.85Z"/><path class="cls-58" d="M48.59,179.84l2-.74.8,2-2,.84Z"/><path class="cls-59" d="M66.73,175.92l-2.09.76-.71-2.14,2.06-.72C66.24,174.54,66.46,175.14,66.73,175.92Z"/><path class="cls-60" d="M103.19,175.45l.53-2.25,2.06.44-.34,2.12Z"/><path class="cls-61" d="M343.63,138.09l2.13.83-.82,2.09-2.08-.78Z"/><path class="cls-52" d="M57,179.35l-.77-2.15,2.06-.73.76,2.05Z"/><path class="cls-62" d="M353.64,141.73l-.88,2.18-2.12-.78.71-1.79Z"/><path class="cls-63" d="M20.84,191.76l-2.07.74L18,190.44l2-.81Z"/><path class="cls-64" d="M87.34,172.58l.39-2.26,2.15.41-.41,2.14Z"/><path class="cls-65" d="M25.64,187.79l2-.77.83,2.06-2,.8Z"/><path class="cls-66" d="M169,187.38l-2-.35.36-2.24,2.11.43C169.33,185.94,169.19,186.59,169,187.38Z"/><path class="cls-67" d="M282.44,117.77l-2.1-.82.78-2.18L283,116Z"/><path class="cls-68" d="M97.31,174.4l-2-.44.39-2.27,2,.71Z"/><path class="cls-69" d="M174.84,188.39l.51-2.17,2.1.7c-.23.7-.43,1.29-.65,2Z"/><path class="cls-70" d="M6.9,109.18H.37c0,1.7,0,3.21,0,4.73a9,9,0,0,1-.29,1.52v-6.62c2.2,0,4.32,0,6.43,0C6.63,108.82,6.77,109.06,6.9,109.18Z"/><path class="cls-71" d="M220,32l.1,1.56h7.74v.37c-2,0-4,0-6,0a13.33,13.33,0,0,0-1.88.28A1.69,1.69,0,0,1,220,32Z"/><path class="cls-72" d="M258.5,156.54l.65.67-.4,0-3.49-.34V155l3.51-.45.38,0-.65.67h-2.92c0,.56.06.86.09,1.3Z"/><path class="cls-73" d="M72.31,173.78l-.81-1.89,1.56-.46.67,1.35Z"/><path class="cls-5" d="M241.48,209.52a17.65,17.65,0,0,1,.25,2c0,2.12,0,4.25,0,6.38a5,5,0,0,1-.27-1.17C241.45,214.36,241.47,211.94,241.48,209.52Z"/><path class="cls-31" d="M259.15,154.57l-.38,0v-3.17h2.06v3.16a2.22,2.22,0,0,1-.33-.74c-.05-.64,0-1.29,0-2h-1.33Z"/><path class="cls-74" d="M258.75,157.24l.4,0h0V160h1.31v-2.83l.2-.17.16.22v3.18h-2.09Z"/><path class="cls-75" d="M143.75,29.2l4.58.36-.86.31Z"/><path class="cls-76" d="M65.24,202.93a2.94,2.94,0,0,1,.23.73c0,1.26,0,2.51,0,3.76a3,3,0,0,1-.23.74A7.36,7.36,0,0,1,65.24,202.93Z"/><path class="cls-77" d="M6.89,115.43H1.15a.23.23,0,0,1-.14-.06,1.22,1.22,0,0,1,0-.27l5.88,0A.25.25,0,0,1,6.89,115.43Z"/><path class="cls-78" d="M387.06,110.5v0Z"/><path class="cls-79" d="M127,7.92a2.84,2.84,0,0,1,.24.73c0,.93,0,1.86,0,2.8a2.9,2.9,0,0,1-.24.72A5.05,5.05,0,0,1,127,7.92Z"/><path class="cls-80" d="M51.21,188.06H55.9v.38H51Z"/><path class="cls-81" d="M268.47,111.52c0,1.19,0,2.39,0,3.58C268.44,113.91,268.46,112.71,268.47,111.52Z"/><path class="cls-82" d="M178.68,187.15l0,3.58Z"/><path class="cls-83" d="M72.31,173.78l1.42-1-.67-1.35c.25.08.62.1.71.27a12.46,12.46,0,0,1,.63,1.66Z"/><path class="cls-84" d="M52.67,190.1l-.08-.14a5.08,5.08,0,0,1,.84-.19c1,0,2.07,0,3.11,0Z"/><path class="cls-85" d="M272.33,119h0Z"/><path class="cls-86" d="M208.24,214.66l-.16.64-.59-1,.09-1,.28-.08Z"/><path class="cls-87" d="M58.61,111.84l.75,2-.47.59Z"/><path class="cls-24" d="M81.58,164.47l-2.93.05Z"/><path class="cls-88" d="M374,156.79l2.93.05Z"/><path class="cls-82" d="M23.77,114.47l.77,2-.49.62Z"/><path class="cls-89" d="M23.32,152.58l0-2.92Z"/><path class="cls-17" d="M118.06,183.79l.3-.3c.08,0,.23.18.25.16a8.75,8.75,0,0,1,4.88-2.37,2.81,2.81,0,0,0,1.16-.6c1.41-1,2.79-2.09,4.2-3.12.83-.6,1.69-1.16,2.36-1.61l6.95,1.14,10.3-3.59,5.8-4.4,1.34-.69a1.43,1.43,0,0,1,.29,0c-.13,1.18.38,2.48-.64,3.5l-.31.4a2.66,2.66,0,0,0-.67.43c-1.72,2-3.48,4-5.09,6.15a6,6,0,0,1-2.79,2.12c-1.3.47-2.55,1.1-3.75,1.63l-5.09-1.93c-.64.28-1.21.47-1.73.76a11.44,11.44,0,0,1-6.27,1.37,14.81,14.81,0,0,0-3.31.61l-2.16.41c-1.67.1-3.35.22-5,.27A3,3,0,0,1,118.06,183.79Z"/><path class="cls-6" d="M126.24,183.48a14.81,14.81,0,0,1,3.31-.61,11.44,11.44,0,0,0,6.27-1.37c.52-.29,1.09-.48,1.73-.76l5.09,1.93c1.2-.53,2.45-1.16,3.75-1.63a6,6,0,0,0,2.79-2.12c1.61-2.11,3.37-4.12,5.09-6.15a2.66,2.66,0,0,1,.67-.43,13.85,13.85,0,0,1,.3,1.88c0,3.3,0,6.6,0,9.9l-12.53,0a8.17,8.17,0,0,0-1.54-.28c-2.77,0-5.54,0-8.32,0-1,0-2.08,0-3.11,0C128.59,183.76,127.41,183.6,126.24,183.48Z"/><path class="cls-90" d="M155.27,184.12c0-3.3,0-6.6,0-9.9a13.85,13.85,0,0,0-.3-1.88l.31-.4c.13.26.39.51.39.77,0,3.61,0,7.21,0,10.82C155.64,183.73,155.4,183.92,155.27,184.12Z"/><path class="cls-91" d="M126.24,183.48c1.17.12,2.35.28,3.53.35,1,.06,2.08,0,3.11,0a1.41,1.41,0,0,1,0,.29c-2.7,0-5.4.06-8.11.06-.23,0-.46-.2-.69-.31Z"/><path class="cls-92" d="M132.88,184.14a1.41,1.41,0,0,0,0-.29c2.78,0,5.55,0,8.32,0a8.17,8.17,0,0,1,1.54.28Z"/><path class="cls-1" d="M159.22,155.92h5.87v5.17C163,159.36,160.73,158.08,159.22,155.92Z"/><path class="cls-93" d="M235.19,147.28l-1.27-1.63,1.63-1.4.93.79Z"/><path class="cls-94" d="M208.52,167.74c-.39-1.26,1-1.16,1.51-2.3l.82,1.29Z"/><path class="cls-95" d="M305.91,126.53l-2.15-.84c.27-.72.5-1.35.77-2.11l2.15.79C306.42,125.08,306.2,125.71,305.91,126.53Z"/><path class="cls-65" d="M298.87,121.46l-.77,2.07-2.18-.7.81-2.17Z"/><path class="cls-96" d="M250.45,32.12h4.45v2h-4.45Z"/><path class="cls-97" d="M250.45,29.32l-.25-2H255c0,.63-.06,1.29-.1,1.94Z"/><path class="cls-98" d="M219.76,15.17v-2H231.3v2Zm.28-.68a7.46,7.46,0,0,0,1.52.31c3.05,0,6.1,0,9.28,0l-.15-1.31c-3.39,0-6.67,0-9.95,0-.23,0-.47.2-.7.31Z"/><path class="cls-99" d="M250.61,43.69c-.1-.69-.21-1.38-.31-2h4.62v2l-.69.08-3.24-.5.2-1.17h2.71l0-.13h-3.27Z"/><path class="cls-100" d="M251,20c-1.31-.36-.21-1.38-.77-2.14h5c-.21.76-.41,1.45-.6,2.14v-1.8c-.89,1.36-2,.72-3,.65l1.71-.21,0-.22H251l.19,1h2.8v.14Z"/><path class="cls-101" d="M250.45,46.13h4.46v2.18h-4.46Zm.58,1.8h3.46l-.11-1.09H251Z"/><path class="cls-102" d="M254.9,13.19v2h-4.42v-2Zm-3.78.36L251,14.71h3.49l-.18-1.16Z"/><path class="cls-103" d="M251,20l3-.43v-.14h-2.8l-.19-1h2.29l0,.22-1.71.21c1,.07,2.12.71,3-.65V20Z"/><path class="cls-104" d="M250.61,43.69V41.92h3.27l0,.13h-2.71l-.2,1.17,3.24.5Z"/><path class="cls-105" d="M250.45,29.32l4.41,0Z"/><path class="cls-106" d="M278.21,194.72h7.57v7.56Z"/><path class="cls-107" d="M258.58,195.35v13.89h-2.93l-14.25-.11a2.81,2.81,0,0,0,0-.29h16.65V183.52H246v-.28l12.48,0Z"/><path class="cls-5" d="M258.58,195.35l-.09-12.16a5.54,5.54,0,0,1,.33,1.35c0,3.6,0,7.21,0,10.82Z"/><path class="cls-108" d="M327.19,134.42l.8-2.1,2.11.74c-.24.73-.46,1.37-.73,2.15Z"/><path class="cls-109" d="M312.41,126.46l2.07.85c-.26.7-.5,1.33-.8,2.1l-2.1-.83C311.88,127.8,312.14,127.15,312.41,126.46Z"/><path class="cls-110" d="M320.16,129.4l2.16.78-.8,2.13-2.11-.82C319.65,130.81,319.88,130.18,320.16,129.4Z"/><path class="cls-111" d="M13.5,145.28l-3.59,0A2.87,2.87,0,0,1,13.5,145.28Z"/><path class="cls-112" d="M335.94,187.16a10.43,10.43,0,0,1,1.89-.34q12.66,0,25.31,0h1.71a2.13,2.13,0,0,0,0-.4.21.21,0,0,0-.08-.12,1.21,1.21,0,0,0-.3-.11,4,4,0,0,0-.49,0l-26.46-.07s-.08-.06-.24-.18h27.94c0,.37,0,.7.08,1.27H335.94Z"/><path class="cls-1" d="M60.19,150l-13.12,0V137.13h1.86c3.16,0,6.33,0,9.5,0a10.71,10.71,0,0,0,1.73-.32Z"/><path class="cls-113" d="M48,151.94H41.91V131.56H61.85a9.11,9.11,0,0,1-1.69.31q-8,0-15.93,0H42.28v19.73c1.37,0,2.72,0,4.06,0A11,11,0,0,1,48,151.94Z"/><path class="cls-114" d="M60.2,133.21l-16.28,0s-.13,0-.13-.05a1.11,1.11,0,0,1,0-.26H60.22v.32Z"/><path class="cls-115" d="M43.78,150.38H59.9v.16H43.82Z"/><path class="cls-116" d="M60.16,136.8c0-1.08,0-2.17.05-3.25v-.34l0,0a4.83,4.83,0,0,1,.31,1.2q0,7.2,0,14.4a4.48,4.48,0,0,1-.34,1.18Z"/><path class="cls-117" d="M43.11,150a3.68,3.68,0,0,1-.31-1q0-7.19,0-14.38a3.68,3.68,0,0,1,.31-1Z"/><path class="cls-24" d="M43.11,150V133.53l.4,0V150Z"/><path class="cls-118" d="M60.22,132.87H43.78a4.65,4.65,0,0,1,1.19-.31q7,0,14.05,0A4.83,4.83,0,0,1,60.22,132.87Z"/><path class="cls-113" d="M61.77,132.57v4h-.16v-4Z"/><path class="cls-2" d="M78.34,207.86c-4-.69-6.37-3.14-7.6-6.88a7.36,7.36,0,0,0-.33-.7c2.78-1.66,6.62-.15,7.92,2.7.2.44.39.88.59,1.31v2.5Z"/><path class="cls-119" d="M78.92,206.79v-2.5c.09.87.18,1.73.26,2.59a.24.24,0,0,1-.14,0A.6.6,0,0,1,78.92,206.79Z"/><path class="cls-119" d="M10.65,197.27h2.14l-2.26.25a.59.59,0,0,1,0-.14S10.62,197.31,10.65,197.27Z"/><path class="cls-120" d="M148.34,27c.23-1.76.45-3.52.67-5.27C150.61,23.61,150.37,25.51,148.34,27Z"/><path class="cls-121" d="M372,150.08l0,2.14c-.07-.76-.14-1.52-.22-2.28a.26.26,0,0,1,.25.14Z"/><path class="cls-24" d="M86.22,147.65c0-.38-.06-.76-.06-1.14v-53h37.6v1.42q0,25.56,0,51.12a7.45,7.45,0,0,1-.37,1.57,1.32,1.32,0,0,0,0-.28c0-.1,0-.2,0-.3q0-25.71,0-51.42a10.67,10.67,0,0,0-.31-1.85H86.85a9,9,0,0,0-.31,1.69q0,25.78,0,51.57v.32a1.23,1.23,0,0,0,0,.27l-.14.05h-.14Z"/><path class="cls-122" d="M123.36,147.32a1.32,1.32,0,0,1,0,.28c-1.91,0-3.82.07-5.74.07H88.3c-.6,0-1.2,0-1.8-.07a1.23,1.23,0,0,1,0-.27Z"/><path class="cls-123" d="M104.4,203.81V202.7h46.1l.05,1.11Zm.41-.73v.33h45.31v-.33Z"/><path class="cls-124" d="M138.68,216.82v1.11H104.43l-.05-1.11Zm-33.87.4v.32h33.47v-.32Z"/><path class="cls-125" d="M73.68,99.66v-4.5h5.81V101H74.36a7.72,7.72,0,0,1,1.52-.39c1.07-.06,2.14,0,3.31,0V95.51h-5C74.06,96.86,73.87,98.26,73.68,99.66Z"/><path class="cls-126" d="M244.5,23.46H220.38v-.31H244.9l.06,1.08H220.35V24h24.14Z"/><path class="cls-127" d="M241.41,208.84H211.93V183.51H246v.32H212.26v24.67h29.15c0,.1,0,.21,0,.32Z"/><path class="cls-6" d="M329.87,94.06h-.35a12.48,12.48,0,0,0-1.69-.3c-1.9,0-3.79,0-5.72,0V67.23h7.76Z"/><path class="cls-128" d="M329.87,94.06V67.23h-7.76V93.74c1.93,0,3.82,0,5.72,0a12.48,12.48,0,0,1,1.69.3h-7.77V66.91h8.32a12.93,12.93,0,0,1,.12,1.32q0,12.24,0,24.47A6.19,6.19,0,0,1,329.87,94.06Z"/><path class="cls-129" d="M220,28a3.65,3.65,0,0,1,1-.31q9.76,0,19.54,0a3.79,3.79,0,0,1,.6.09l.11.95c-.2.11-.29.2-.38.2q-10.11,0-20.2,0c-.24,0-.47-.2-.71-.3h20.85V28Z"/><path class="cls-130" d="M220,28h20.85v.67H220Z"/><path class="cls-99" d="M220.12,10.12V9h20.12l.11,1.1Z"/><path class="cls-131" d="M260.48,157.21V160h-1.31v-2.83l.53,2.47h.24Z"/><path class="cls-132" d="M258.5,156.54h-2.83c0-.44,0-.74-.09-1.3h2.92l-2.47.53V156Z"/><path class="cls-99" d="M236.68,46.8v1.12H220.19l-.06-1.12Z"/><path class="cls-133" d="M104.41,208.41v-1.1H120.9l.06,1.1Zm.4-.72V208h15.71v-.32Z"/><path class="cls-5" d="M301.91,62.17v31.9h-8.43V62.17Z"/><path class="cls-96" d="M230.77,41.87V43H220.18V41.87Z"/><path class="cls-134" d="M112.77,221.44l-.07,1.12h-8.21l-.17-1.12Z"/><path class="cls-135" d="M339.73,43.43c-.12.09-.25.27-.37.27-2.65,0-5.3,0-8.05,0V42.48h8.05c.12,0,.25.18.37.28h-8v.66Z"/><ellipse class="cls-10" cx="335.71" cy="43.1" rx="5.68" ry="0.46"/><path class="cls-5" d="M154.26,169.1l-5.8,4.4-10.3,3.59L131.21,176c-.67.45-1.53,1-2.36,1.61-1.41,1-2.79,2.09-4.2,3.12a2.81,2.81,0,0,1-1.16.6,8.75,8.75,0,0,0-4.88,2.37s-.17-.11-.25-.16l2-5.1,2.85,1c1.3-1.15,2.6-2.4,4-3.49a4.2,4.2,0,0,1,2.41-1.13,14.82,14.82,0,0,0,8.67-2.52,12.36,12.36,0,0,1,7.08-1.51l2.92.38,0-.33-.75-.13,5-2.72Z"/><path class="cls-136" d="M147.61,170.64l.75.13,0,.33-2.92-.38Z"/><path class="cls-48" d="M228.93,152.81l-1.43-1.69,1.65-1.55,1.58,1.72Z"/><path class="cls-48" d="M221.08,156.48l1.7-1.48,1.51,1.71-1.79,1.52Z"/><path class="cls-93" d="M216.12,163.61l-1.46-1.7,1.68-1.52,1.55,1.7Z"/><path class="cls-137" d="M220,13.83c.23-.11.47-.31.7-.31,3.28,0,6.56,0,9.95,0l.15,1.31c-3.18,0-6.23,0-9.28,0a7.46,7.46,0,0,1-1.52-.31h10.33v-.66Z"/><ellipse class="cls-138" cx="225.2" cy="14.16" rx="7.31" ry="0.47"/><path class="cls-103" d="M251,47.93V46.84h3.35l.11,1.09Z"/><path class="cls-97" d="M251.12,13.55h3.23l.18,1.16H251Z"/><path class="cls-139" d="M241.4,208.83c0-.11,0-.22,0-.32h16.33V183.84H246v-.32h12.05v25.31Z"/><path class="cls-6" d="M127.68,49.16c-3.61,4.4-7.4,8.63-11.25,13l-3.84-4.52c4.7-3.18,9.44-6.11,14.22-9Zm-10,6.07L116.17,57a6.35,6.35,0,0,0,2,1.06c.36,0,1-.65,1.13-1.11C119.54,56,118.87,55.53,117.64,55.23Z"/><path class="cls-140" d="M123,47.41l1.68-3,2.19,1.51L124.7,48.5Z"/><path class="cls-141" d="M104.46,58.4l3.31-.5.53,1.89L105,61Z"/><path class="cls-142" d="M130.34,50.24l1,2.48-3.24.94-.83-1.78Z"/><path class="cls-143" d="M109.14,45.89l2.2-1.5,1.67,3-1.61,1.16Z"/><path class="cls-144" d="M104.75,52.82l1-2.5,3,1.5-.61,1.85Z"/><path class="cls-145" d="M128.61,58l3,.37c-.2.87-.37,1.64-.59,2.65l-2.55-1Z"/><path class="cls-146" d="M119,45.39v.34l-1.49-.1-.3-2.53,1.33.13Z"/><path class="cls-147" d="M119,45.39l-.47-2.16-1.33-.13.3,2.53,1.49.1-1.92.55c-.16-1.29-.28-2.34-.42-3.48h2.62Z"/><path class="cls-148" d="M127.68,49.16l-.87-.51,2-1.33.28.26Z"/><path class="cls-149" d="M128.61,58l-.09,2C127.72,59.42,127.74,59,128.61,58Z"/><path class="cls-129" d="M123,93.75a10.67,10.67,0,0,1,.31,1.85q0,25.71,0,51.42H86.52q0-25.78,0-51.57a9,9,0,0,1,.31-1.69v52.82H123V94.07C123,94,123,93.85,123,93.75Z"/><path class="cls-150" d="M86.52,147h36.84c0,.1,0,.2,0,.3H86.52Z"/><path class="cls-151" d="M86.85,94.07v-.32H123c0,.1,0,.21,0,.32Z"/><ellipse class="cls-138" cx="127.46" cy="203.24" rx="32.04" ry="0.23"/><ellipse class="cls-138" cx="121.54" cy="217.38" rx="23.67" ry="0.23"/><path class="cls-152" d="M246,183.84h11.73v24.67H212.26V183.84Zm-32.88,23c.08,0,.22,0,.25,0a.6.6,0,0,0,.05-.3q0-10.1,0-20.18a3,3,0,0,0-.28-.88,4.78,4.78,0,0,0-.32,1.19q0,9.49,0,19A4.86,4.86,0,0,0,213.13,206.86Zm28.6.66h14.15v-.37H241.65c.54-.06,1.07-.16,1.61-.17h11.5c.47,0,.94-.06,1.43-.1V194.26c0-.48,0-.95,0-1.43v-7.32h-7.32a7.43,7.43,0,0,0-.81-.09H214.6a5.56,5.56,0,0,0-.93.17c0,7,0,13.87,0,20.76a2,2,0,0,0,.19.6.2.2,0,0,0,0,.21l-.05.36a6.15,6.15,0,0,0,1.37.31q12.61,0,25.22,0A6.07,6.07,0,0,0,241.73,207.52Zm-27.95-22.69a6.79,6.79,0,0,0,1.38.29q16.05,0,32.11,0a6.7,6.7,0,0,0,1.37-.29h7.23c-.16-.27-.31-.32-.47-.32H215A5,5,0,0,0,213.78,184.83Z"/><ellipse class="cls-153" cx="112.67" cy="207.85" rx="11.11" ry="0.23"/><path class="cls-154" d="M117.64,55.23c1.23.3,1.9.81,1.67,1.76-.1.46-.77,1.14-1.13,1.11a6.35,6.35,0,0,1-2-1.06Z"/><path class="cls-152" d="M86.85,94.07H123v52.5H86.85Zm34.53,1a7.55,7.55,0,0,0-1.53-.31q-14.91,0-29.83,0a7.35,7.35,0,0,0-1.52.32,6.56,6.56,0,0,0,1.37.29q15.07,0,30.14,0A6.12,6.12,0,0,0,121.38,95.05ZM87.84,145.37a8.51,8.51,0,0,0,.29-1.54q0-23.29,0-46.58a8.51,8.51,0,0,0-.29-1.54,7.58,7.58,0,0,0-.32,1.53q0,23.31,0,46.6A7.58,7.58,0,0,0,87.84,145.37ZM122,95.71l-.43,0c-.38,0-.76-.08-1.14-.08H89.29c-.26,0-.52,0-.89.09v48.13c0,.49.07,1,.1,1.47a7.58,7.58,0,0,0,1.51.33q14.92,0,29.84,0a7.55,7.55,0,0,0,1.53-.31l.07-.07.09,0,.5,0a7.55,7.55,0,0,0,.31-1.53q0-23.29,0-46.6A7.55,7.55,0,0,0,122,95.71Z"/><path class="cls-5" d="M213.87,207l14.94-.07h12.63V194.26h14.75v12.61c-.49,0-1,.1-1.43.1h-11.5c-.54,0-1.07.11-1.61.17a.17.17,0,0,0-.25,0l-27.57,0A.2.2,0,0,1,213.87,207Z"/><path class="cls-17" d="M256.2,192.83l-7.32-7.32h7.32Z"/><path class="cls-133" d="M213.78,184.83a5,5,0,0,1,1.21-.32H255.4c.16,0,.31.05.47.32H213.78Z"/><path class="cls-24" d="M213.78,184.83h34.86a6.7,6.7,0,0,1-1.37.29q-16.07,0-32.11,0A6.79,6.79,0,0,1,213.78,184.83Z"/><path class="cls-155" d="M241.73,207.52a6.07,6.07,0,0,1-1.36.31q-12.62,0-25.22,0a6.15,6.15,0,0,1-1.37-.31h27.95Z"/><path class="cls-24" d="M241.41,207.51H213.78l.05-.36,27.57,0C241.4,207.3,241.41,207.41,241.41,207.51Z"/><path class="cls-24" d="M213.13,185.49a3,3,0,0,1,.28.88q0,10.09,0,20.18a.6.6,0,0,1-.05.3s-.17,0-.25,0Z"/><path class="cls-118" d="M213.13,185.49v21.37a4.86,4.86,0,0,1-.32-1.2q0-9.48,0-19A4.78,4.78,0,0,1,213.13,185.49Z"/><path class="cls-156" d="M241.41,207.51c0-.1,0-.21,0-.31a.17.17,0,0,1,.25,0h14.23v.37H241.41Z"/><path class="cls-24" d="M121.54,145.33c0-.39.08-.77.08-1.15q0-24.21,0-48.44l.43,0v49.66Z"/><path class="cls-155" d="M122,145.37V95.71a7.55,7.55,0,0,1,.31,1.53q0,23.31,0,46.6A7.55,7.55,0,0,1,122,145.37Z"/><path class="cls-24" d="M87.84,95.71a8.51,8.51,0,0,1,.29,1.54q0,23.3,0,46.58a8.51,8.51,0,0,1-.29,1.54Z"/><path class="cls-157" d="M87.84,95.71v49.66a7.58,7.58,0,0,1-.32-1.53q0-23.29,0-46.6A7.58,7.58,0,0,1,87.84,95.71Z"/><path class="cls-24" d="M88.5,145.35l32.88,0a7.55,7.55,0,0,1-1.53.31q-14.92,0-29.84,0A7.58,7.58,0,0,1,88.5,145.35Z"/><path class="cls-158" d="M88.5,95.06A7.35,7.35,0,0,1,90,94.74q14.92,0,29.83,0a7.55,7.55,0,0,1,1.53.31Z"/><path class="cls-159" d="M88.5,95.06h32.88a6.12,6.12,0,0,1-1.37.3q-15.08,0-30.14,0A6.56,6.56,0,0,1,88.5,95.06Z"/><path class="cls-2" d="M118.06,108.52a4.71,4.71,0,0,1-1.18.32q-11.82,0-23.62,0c-.32,0-.63-.06-1.05-.1V99.34h25.23a1.67,1.67,0,0,1-.38.29l-16.46,5.93c-2.53.91-5,1.85-7.56,2.78l0,.18Z"/><path class="cls-1" d="M118.06,108.52h-25l0-.18c2.52-.93,5-1.87,7.56-2.78l16.46-5.93a1.67,1.67,0,0,0,.38-.29c.87,0,.64.72.64,1.21C118.09,103.21,118.07,105.86,118.06,108.52Z"/><path class="cls-160" d="M117.9,139.32h-4.6V127.73h4.6Z"/><path class="cls-161" d="M117.91,125.17h-4.58v-4.59h4.58Z"/><path class="cls-162" d="M110.78,120.51v4.64h-4.43v-4.64Z"/><path class="cls-162" d="M118,113.6V118h-4.69V113.6Z"/><path class="cls-163" d="M99.15,120.49h4.37v4.66H99.15Z"/><path class="cls-161" d="M92.19,125.15v-4.62h4.39v4.62Z"/><path class="cls-1" d="M92.17,139.32v-4.49h4.4v4.49Z"/><path class="cls-1" d="M99.13,139.33v-4.41h4.39v4.41Z"/><path class="cls-1" d="M106.34,134.91h4.42v4.39h-4.42Z"/><path class="cls-1" d="M103.56,113.58V118H99.18v-4.38Z"/><path class="cls-1" d="M106.36,113.55h4.38v4.38h-4.38Z"/><path class="cls-1" d="M96.63,127.72v4.39h-4.4v-4.39Z"/><path class="cls-1" d="M99.14,127.69h4.4v4.4h-4.4Z"/><path class="cls-1" d="M106.36,127.7h4.38v4.38h-4.38Z"/><path class="cls-6" d="M96.06,118H92.44v-4.13h3.62Z"/><path class="cls-164" d="M96.06,118v-4.12H92.44v4.13c-.13-.69-.31-1.37-.37-2.06s0-1.61,0-2.48h4.59c0,1.38,0,2.78,0,4.17C96.62,117.81,96.26,117.92,96.06,118Z"/><text class="cls-165" transform="translate(145.4 119.05)">Operations</text><circle class="cls-166" cx="193.35" cy="120.46" r="54.3"/><path class="cls-167" d="M242.08,86.24c.47.85.93,1.69,1.41,2.54.77,1.37,1.56,2.73,2.43,4.26H255c.2,1,.64,1.84-.16,2.65V93.43H219.71a7.31,7.31,0,0,1,1.51-.34c3.55,0,7.1,0,10.66,0h3.25l-1.46-2c-4.11,0-8.21,0-12.3,0a9,9,0,0,1-1.67-.34h17.5v-2H219.7v2l-.37-2.4h12.11l-1.69-1.88c-2.82,0-5.59,0-8.36,0a9.07,9.07,0,0,1-1.68-.33Z"/><path class="cls-99" d="M240.09,83.83c4.92.2,9.85-.15,14.8.18v2.12h-.66c-.23-1-1.06-.59-1.62-.59q-15.37,0-30.74,0c-.49,0-1,.07-1.47.09-.09,0-.18-.07-.35-.14l.19-1h33.69v-.3h-1.61q-15.29,0-30.57,0a11.48,11.48,0,0,1-1.73-.26l6.57-.1Z"/><path class="cls-168" d="M219.71,79.28H255c0,.78-.1,1.51-.15,2.24l-16.69,0-13.47,0h-4.93Zm.33.64v.67a5.82,5.82,0,0,0,1.21.31c1.2,0,2.4,0,3.61,0h28.26c.43,0,.85-.07,1.38-.11l-.13-1.12c-.33,0-.54-.07-.76-.07q-16.19,0-32.37,0A5.27,5.27,0,0,0,220,79.92Z"/><path class="cls-169" d="M219.71,93.43h35.13v2.26l-7.51,0H236.8c-3.11,0-6.22-.07-9.33-.09-2.56,0-5.11,0-7.76,0Zm15.11.32h-14.7l.07,1.19h34.34l-.2-1.19H234.82Z"/><path class="cls-170" d="M220,83.93a11.48,11.48,0,0,0,1.73.26q15.28,0,30.57,0h1.61v.3H220.24l-.19,1c.17.07.26.15.35.14.49,0,1-.09,1.47-.09q15.38,0,30.74,0c.56,0,1.39-.42,1.62.59l-12.15.11-22.37-.09Z"/><path class="cls-2" d="M224.64,81.57l13.47,0,2,2.28H226.6Z"/><path class="cls-167" d="M236.8,95.74h10.53l1,2.26H237.78C237.46,97.24,237.13,96.49,236.8,95.74Z"/><path class="cls-152" d="M237.78,98h10.54l6.54,0a.34.34,0,0,1,0,.31H219.75l1.1-.38Z"/><path class="cls-171" d="M222.89,100.4h-3.14V98.35h35.11l.11,2h-7.05l-23.23,0C224.09,100.33,223.49,100.37,222.89,100.4ZM221,98.68c-.89,0-1.19.32-.73,1.3h34.13v-1.3Z"/><path class="cls-82" d="M219.7,90.78v-2h17.5v2Zm.33-.66a7.58,7.58,0,0,0,1.53.32c4.6,0,9.2,0,13.81,0,.42,0,.84-.07,1.37-.11l-.13-1.2c-5.36,0-10.62,0-15.87,0-.24,0-.47.2-.71.31Z"/><path class="cls-172" d="M220,79.92a5.27,5.27,0,0,1,1.2-.3q16.19,0,32.37,0c.22,0,.43,0,.76.07l.13,1.12c-.53,0-.95.11-1.38.11H224.86c-1.21,0-2.41,0-3.61,0a5.82,5.82,0,0,1-1.21-.31h34v-.67Z"/><path class="cls-153" d="M220,79.92h34v.67H220Z"/><path class="cls-14" d="M234.82,93.75H245a8.38,8.38,0,0,0,1.54.3c2.19,0,4.38,0,6.57,0a6.22,6.22,0,0,1,1.25.3c-2.22.6-32.95.44-33.84-.31h1.56c3.73,0,7.45,0,11.18,0A8.27,8.27,0,0,0,234.82,93.75Z"/><path class="cls-173" d="M234.82,93.75a8.27,8.27,0,0,1-1.53.3c-3.73,0-7.45,0-11.18,0h-1.56c.89.75,31.62.91,33.84.31a6.22,6.22,0,0,0-1.25-.3c-2.19,0-4.38,0-6.57,0a8.38,8.38,0,0,1-1.54-.3h9.3l.2,1.19H220.19l-.07-1.19Z"/><path class="cls-152" d="M223,100h-2.71c-.46-1-.16-1.33.73-1.3a12,12,0,0,0,1.86.31c9.84,0,19.69,0,29.53,0,.55,0,1.1,0,1.65.08v.48c-.54,0-1.09.08-1.64.09q-13.87,0-27.73,0A10,10,0,0,0,223,100Z"/><path class="cls-60" d="M223,100a10,10,0,0,1,1.69-.31q13.86,0,27.73,0c.55,0,1.1-.06,1.64-.09v-.48c-.55,0-1.1-.08-1.65-.08-9.84,0-19.69,0-29.53,0a12,12,0,0,1-1.86-.31h33.4V100Z"/><path class="cls-174" d="M220,89.46c.24-.11.47-.31.71-.31,5.25,0,10.51,0,15.87,0l.13,1.2c-.53,0-1,.1-1.37.11-4.61,0-9.21,0-13.81,0a7.58,7.58,0,0,1-1.53-.32h16.25v-.66Z"/><path class="cls-10" d="M220,89.46h16.25v.66H220Z"/><path class="cls-2" d="M144.11,144.41a5.21,5.21,0,0,0,1.37.41q11.66,0,23.3,0c.42,0,.83-.06,1.22-.09v-2.08c-8.46,0-16.82,0-25.18,0-.24,0-.47.27-.7.42Z"/><path class="cls-99" d="M144.11,149V147.7l.5.71c.17-.23.32-.62.47-.62,5.32,0,10.65,0,16,0L161,149Z"/><path class="cls-175" d="M144.11,149H161l.09-1.25c-5.39,0-10.72,0-16,0-.15,0-.3.39-.47.62l-.5-.71c.13-.12.27-.35.41-.35,5.65,0,11.3,0,17.14,0l-.17,2.33-9.19,0c-2.41,0-4.81,0-7.22-.07C144.68,149.62,144,149.91,144.11,149Z"/><path class="cls-82" d="M144.12,143.09c.23-.15.46-.42.7-.42,8.36,0,16.72,0,25.18,0v2.08c-.39,0-.8.09-1.22.09q-11.64,0-23.3,0a5.21,5.21,0,0,1-1.37-.41h25.57l-.1-1.3H144.12Z"/><path class="cls-10" d="M144.12,143.09h.61a9.27,9.27,0,0,0,1.69.31c7.05,0,14.1,0,21.15,0,.55,0,1.1,0,1.65.08V144c-.55,0-1.09.09-1.64.09-7.05,0-14.1,0-21.15,0a10.91,10.91,0,0,0-1.69.31h-.63Z"/><path class="cls-174" d="M144.74,144.4a10.91,10.91,0,0,1,1.69-.31c7,0,14.1,0,21.15,0,.55,0,1.09-.06,1.64-.09v-.48c-.55,0-1.1-.08-1.65-.08-7,0-14.1,0-21.15,0a9.27,9.27,0,0,1-1.69-.31h24.85l.1,1.3Z"/><text class="cls-176" transform="translate(155.27 137.33)">Research</text></g></g></svg>