<svg xmlns="http://www.w3.org/2000/svg" viewBox="0 0 614.7 152.19"><defs><style>.cls-1,.cls-3{fill:none;}.cls-1{stroke:#1b75bc;stroke-miterlimit:10;}.cls-2{fill:#1b75bc;}.cls-4{font-size:16px;}.cls-4,.cls-5{fill:#231f20;font-family:Garamond;}.cls-5{font-size:15px;}</style></defs><title>Asset 2</title><g id="Layer_2" data-name="Layer 2"><g id="Layer_1-2" data-name="Layer 1"><ellipse class="cls-1" cx="35.01" cy="18.82" rx="34.51" ry="18.32"/><ellipse class="cls-1" cx="154.43" cy="73.04" rx="34.51" ry="18.32"/><ellipse class="cls-1" cx="270.04" cy="125.47" rx="34.51" ry="18.32"/><ellipse class="cls-1" cx="385.65" cy="125.47" rx="34.51" ry="18.32"/><ellipse class="cls-1" cx="501.26" cy="125.47" rx="34.51" ry="18.32"/><polygon class="cls-2" points="69.26 14.89 120.5 59 118.62 61.2 125.08 62.42 122.91 56.21 121.02 58.4 69.78 14.29 69.26 14.89"/><polygon class="cls-2" points="120.59 74.34 69.34 30.23 71.23 28.04 64.77 26.81 66.94 33.02 68.83 30.83 120.07 74.94 120.59 74.34"/><polygon class="cls-2" points="186.32 66.67 237.57 110.78 235.68 112.97 242.14 114.19 239.97 107.98 238.08 110.17 186.84 66.06 186.32 66.67"/><polygon class="cls-2" points="238.04 130.77 186.8 86.66 188.69 84.46 182.22 83.24 184.4 89.45 186.28 87.26 237.53 131.37 238.04 130.77"/><polygon class="cls-2" points="303.02 119.41 346.9 119.41 346.9 122.31 352.59 119.02 346.9 115.73 346.9 118.62 303.02 118.62 303.02 119.41"/><polygon class="cls-2" points="352.14 130.67 308.27 130.67 308.27 127.78 302.57 131.07 308.27 134.36 308.27 131.47 352.14 131.47 352.14 130.67"/><polygon class="cls-2" points="419.27 119.84 463.15 119.84 463.15 122.73 468.84 119.44 463.15 116.16 463.15 119.05 419.27 119.05 419.27 119.84"/><polygon class="cls-2" points="468.39 131.1 424.52 131.1 424.52 128.21 418.82 131.5 424.52 134.78 424.52 131.89 468.39 131.89 468.39 131.1"/><polygon class="cls-2" points="533.97 119.84 577.84 119.84 577.84 122.73 583.54 119.44 577.84 116.16 577.84 119.05 533.97 119.05 533.97 119.84"/><polygon class="cls-2" points="583.09 131.1 539.22 131.1 539.22 128.21 533.52 131.5 539.22 134.78 539.22 131.89 583.09 131.89 583.09 131.1"/><rect class="cls-3" x="575.25" y="117.97" width="13.15" height="15"/><rect class="cls-2" x="584.99" y="124.94" width="2.44" height="1.5"/><rect class="cls-2" x="580.61" y="124.94" width="2.44" height="1.5"/><rect class="cls-2" x="576.25" y="124.94" width="2.44" height="1.5"/><rect class="cls-3" x="588.4" y="117.97" width="13.15" height="15"/><rect class="cls-2" x="598.14" y="124.94" width="2.44" height="1.5"/><rect class="cls-2" x="593.76" y="124.94" width="2.44" height="1.5"/><rect class="cls-2" x="589.4" y="124.94" width="2.44" height="1.5"/><rect class="cls-3" x="601.55" y="117.97" width="13.15" height="15"/><rect class="cls-2" x="611.29" y="124.94" width="2.44" height="1.5"/><rect class="cls-2" x="606.91" y="124.94" width="2.44" height="1.5"/><rect class="cls-2" x="602.55" y="124.94" width="2.44" height="1.5"/><text class="cls-4" transform="translate(101.15 30.14)">λ</text><text class="cls-5" transform="translate(79.63 62.42)">μ</text><text class="cls-4" transform="translate(218.09 85.55)">λ</text><text class="cls-4" transform="translate(323.99 112.87)">λ</text><text class="cls-4" transform="translate(436.9 112.87)">λ</text><text class="cls-4" transform="translate(552.81 114.19)">λ</text><text class="cls-5" transform="translate(189.22 114.19)">2μ</text><text class="cls-5" transform="translate(322.33 145.29)">2μ</text><text class="cls-5" transform="translate(432.77 145.29)">2μ</text><text class="cls-5" transform="translate(548.68 147.59)">2μ</text><text class="cls-5" transform="translate(23.21 18.88) scale(0.58)">Lq = 0<tspan x="-0.55" y="13.72">Ns = 0</tspan></text><text class="cls-5" transform="translate(141.66 73.11) scale(0.58)">Lq = 0<tspan x="-0.55" y="13.72">Ns = 1</tspan></text><text class="cls-5" transform="translate(256.08 125.53) scale(0.58)">Lq = 0<tspan x="-0.55" y="13.72">Ns = 2</tspan></text><text class="cls-5" transform="translate(374.13 123.72) scale(0.58)">Lq = 1<tspan x="-0.55" y="13.72">Ns = 2</tspan></text><text class="cls-5" transform="translate(489.47 125.53) scale(0.58)">Lq = 2<tspan x="-0.55" y="13.72">Ns = 2</tspan></text></g></g></svg>