<svg xmlns="http://www.w3.org/2000/svg" viewBox="0 0 473.62 328.53"><defs><style>.cls-1,.cls-2{fill:#fff;}.cls-1{stroke:#27aae1;stroke-width:2px;}.cls-1,.cls-17{stroke-miterlimit:10;}.cls-17,.cls-3{fill:none;}.cls-4,.cls-5,.cls-8{fill:#231f20;}.cls-13,.cls-15,.cls-16,.cls-5,.cls-8{font-size:12px;font-family:MyriadPro-Regular, Myriad Pro;}.cls-6{letter-spacing:-0.05em;}.cls-7{letter-spacing:-0.01em;}.cls-8{letter-spacing:-0.02em;}.cls-9{letter-spacing:0em;}.cls-10{letter-spacing:-0.01em;}.cls-11{letter-spacing:0em;}.cls-12,.cls-13{fill:#00a651;}.cls-14,.cls-15{fill:#be1e2d;}.cls-16{fill:#00aeef;}.cls-17{stroke:#be1e2d;}</style></defs><title>Asset 1</title><g id="Layer_2" data-name="Layer 2"><g id="Layer_1-2" data-name="Layer 1"><rect class="cls-1" x="19.84" y="146.3" width="117.24" height="54.74"/><line class="cls-2" x1="78.46" y1="18.81" x2="78.46" y2="328.53"/><rect class="cls-3" x="70.96" y="18.81" width="15" height="13.47"/><rect class="cls-4" x="77.49" y="28.79" width="1.5" height="2.5"/><rect class="cls-4" x="77.49" y="24.3" width="1.5" height="2.5"/><rect class="cls-4" x="77.49" y="19.84" width="1.5" height="2.5"/><rect class="cls-3" x="70.96" y="32.28" width="15" height="13.47"/><rect class="cls-4" x="77.49" y="42.25" width="1.5" height="2.5"/><rect class="cls-4" x="77.49" y="37.77" width="1.5" height="2.5"/><rect class="cls-4" x="77.49" y="33.3" width="1.5" height="2.5"/><rect class="cls-3" x="70.96" y="45.75" width="15" height="13.47"/><rect class="cls-4" x="77.49" y="55.72" width="1.5" height="2.5"/><rect class="cls-4" x="77.49" y="51.23" width="1.5" height="2.5"/><rect class="cls-4" x="77.49" y="46.77" width="1.5" height="2.5"/><rect class="cls-3" x="70.96" y="59.21" width="15" height="13.47"/><rect class="cls-4" x="77.49" y="69.18" width="1.5" height="2.5"/><rect class="cls-4" x="77.49" y="64.7" width="1.5" height="2.5"/><rect class="cls-4" x="77.49" y="60.23" width="1.5" height="2.5"/><rect class="cls-3" x="70.96" y="72.68" width="15" height="13.47"/><rect class="cls-4" x="77.49" y="82.65" width="1.5" height="2.5"/><rect class="cls-4" x="77.49" y="78.17" width="1.5" height="2.5"/><rect class="cls-4" x="77.49" y="73.7" width="1.5" height="2.5"/><rect class="cls-3" x="70.96" y="86.14" width="15" height="13.47"/><rect class="cls-4" x="77.49" y="96.12" width="1.5" height="2.5"/><rect class="cls-4" x="77.49" y="91.63" width="1.5" height="2.5"/><rect class="cls-4" x="77.49" y="87.16" width="1.5" height="2.5"/><rect class="cls-3" x="70.96" y="99.61" width="15" height="13.47"/><rect class="cls-4" x="77.49" y="109.58" width="1.5" height="2.5"/><rect class="cls-4" x="77.49" y="105.1" width="1.5" height="2.5"/><rect class="cls-4" x="77.49" y="100.63" width="1.5" height="2.5"/><rect class="cls-3" x="70.96" y="113.08" width="15" height="13.47"/><rect class="cls-4" x="77.49" y="123.05" width="1.5" height="2.5"/><rect class="cls-4" x="77.49" y="118.56" width="1.5" height="2.5"/><rect class="cls-4" x="77.49" y="114.1" width="1.5" height="2.5"/><rect class="cls-3" x="70.96" y="126.54" width="15" height="13.47"/><rect class="cls-4" x="77.49" y="136.51" width="1.5" height="2.5"/><rect class="cls-4" x="77.49" y="132.03" width="1.5" height="2.5"/><rect class="cls-4" x="77.49" y="127.56" width="1.5" height="2.5"/><rect class="cls-3" x="70.96" y="140.01" width="15" height="13.47"/><rect class="cls-4" x="77.49" y="149.98" width="1.5" height="2.5"/><rect class="cls-4" x="77.49" y="145.5" width="1.5" height="2.5"/><rect class="cls-4" x="77.49" y="141.03" width="1.5" height="2.5"/><rect class="cls-3" x="70.96" y="153.47" width="15" height="13.47"/><rect class="cls-4" x="77.49" y="163.44" width="1.5" height="2.5"/><rect class="cls-4" x="77.49" y="158.96" width="1.5" height="2.5"/><rect class="cls-4" x="77.49" y="154.49" width="1.5" height="2.5"/><rect class="cls-3" x="70.96" y="166.94" width="15" height="13.47"/><rect class="cls-4" x="77.49" y="176.91" width="1.5" height="2.5"/><rect class="cls-4" x="77.49" y="172.43" width="1.5" height="2.5"/><rect class="cls-4" x="77.49" y="167.96" width="1.5" height="2.5"/><rect class="cls-3" x="70.96" y="180.4" width="15" height="13.47"/><rect class="cls-4" x="77.49" y="190.38" width="1.5" height="2.5"/><rect class="cls-4" x="77.49" y="185.89" width="1.5" height="2.5"/><rect class="cls-4" x="77.49" y="181.42" width="1.5" height="2.5"/><rect class="cls-3" x="70.96" y="193.87" width="15" height="13.47"/><rect class="cls-4" x="77.49" y="203.84" width="1.5" height="2.5"/><rect class="cls-4" x="77.49" y="199.36" width="1.5" height="2.5"/><rect class="cls-4" x="77.49" y="194.89" width="1.5" height="2.5"/><rect class="cls-3" x="70.96" y="207.34" width="15" height="13.47"/><rect class="cls-4" x="77.49" y="217.31" width="1.5" height="2.5"/><rect class="cls-4" x="77.49" y="212.82" width="1.5" height="2.5"/><rect class="cls-4" x="77.49" y="208.36" width="1.5" height="2.5"/><rect class="cls-3" x="70.96" y="220.8" width="15" height="13.47"/><rect class="cls-4" x="77.49" y="230.77" width="1.5" height="2.5"/><rect class="cls-4" x="77.49" y="226.29" width="1.5" height="2.5"/><rect class="cls-4" x="77.49" y="221.82" width="1.5" height="2.5"/><rect class="cls-3" x="70.96" y="234.27" width="15" height="13.47"/><rect class="cls-4" x="77.49" y="244.24" width="1.5" height="2.5"/><rect class="cls-4" x="77.49" y="239.76" width="1.5" height="2.5"/><rect class="cls-4" x="77.49" y="235.29" width="1.5" height="2.5"/><rect class="cls-3" x="70.96" y="247.73" width="15" height="13.47"/><rect class="cls-4" x="77.49" y="257.7" width="1.5" height="2.5"/><rect class="cls-4" x="77.49" y="253.22" width="1.5" height="2.5"/><rect class="cls-4" x="77.49" y="248.75" width="1.5" height="2.5"/><rect class="cls-3" x="70.96" y="261.2" width="15" height="13.47"/><rect class="cls-4" x="77.49" y="271.17" width="1.5" height="2.5"/><rect class="cls-4" x="77.49" y="266.69" width="1.5" height="2.5"/><rect class="cls-4" x="77.49" y="262.22" width="1.5" height="2.5"/><rect class="cls-3" x="70.96" y="274.66" width="15" height="13.47"/><rect class="cls-4" x="77.49" y="284.64" width="1.5" height="2.5"/><rect class="cls-4" x="77.49" y="280.15" width="1.5" height="2.5"/><rect class="cls-4" x="77.49" y="275.69" width="1.5" height="2.5"/><rect class="cls-3" x="70.96" y="288.13" width="15" height="13.47"/><rect class="cls-4" x="77.49" y="298.1" width="1.5" height="2.5"/><rect class="cls-4" x="77.49" y="293.62" width="1.5" height="2.5"/><rect class="cls-4" x="77.49" y="289.15" width="1.5" height="2.5"/><rect class="cls-3" x="70.96" y="301.6" width="15" height="13.47"/><rect class="cls-4" x="77.49" y="311.57" width="1.5" height="2.5"/><rect class="cls-4" x="77.49" y="307.08" width="1.5" height="2.5"/><rect class="cls-4" x="77.49" y="302.62" width="1.5" height="2.5"/><rect class="cls-3" x="70.96" y="315.06" width="15" height="13.47"/><rect class="cls-4" x="77.49" y="325.03" width="1.5" height="2.5"/><rect class="cls-4" x="77.49" y="320.55" width="1.5" height="2.5"/><rect class="cls-4" x="77.49" y="316.08" width="1.5" height="2.5"/><line class="cls-2" x1="473.62" y1="173.67" y2="173.67"/><rect class="cls-3" x="460.09" y="166.17" width="13.53" height="15"/><rect class="cls-4" x="461.08" y="172.7" width="2.51" height="1.5"/><rect class="cls-4" x="465.59" y="172.7" width="2.51" height="1.5"/><rect class="cls-4" x="470.08" y="172.7" width="2.51" height="1.5"/><rect class="cls-3" x="446.55" y="166.17" width="13.53" height="15"/><rect class="cls-4" x="447.55" y="172.7" width="2.51" height="1.5"/><rect class="cls-4" x="452.06" y="172.7" width="2.51" height="1.5"/><rect class="cls-4" x="456.55" y="172.7" width="2.51" height="1.5"/><rect class="cls-3" x="433.02" y="166.17" width="13.53" height="15"/><rect class="cls-4" x="434.02" y="172.7" width="2.51" height="1.5"/><rect class="cls-4" x="438.53" y="172.7" width="2.51" height="1.5"/><rect class="cls-4" x="443.02" y="172.7" width="2.51" height="1.5"/><rect class="cls-3" x="419.49" y="166.17" width="13.53" height="15"/><rect class="cls-4" x="420.49" y="172.7" width="2.51" height="1.5"/><rect class="cls-4" x="424.99" y="172.7" width="2.51" height="1.5"/><rect class="cls-4" x="429.48" y="172.7" width="2.51" height="1.5"/><rect class="cls-3" x="405.96" y="166.17" width="13.53" height="15"/><rect class="cls-4" x="406.96" y="172.7" width="2.51" height="1.5"/><rect class="cls-4" x="411.46" y="172.7" width="2.51" height="1.5"/><rect class="cls-4" x="415.95" y="172.7" width="2.51" height="1.5"/><rect class="cls-3" x="392.43" y="166.17" width="13.53" height="15"/><rect class="cls-4" x="393.43" y="172.7" width="2.51" height="1.5"/><rect class="cls-4" x="397.93" y="172.7" width="2.51" height="1.5"/><rect class="cls-4" x="402.42" y="172.7" width="2.51" height="1.5"/><rect class="cls-3" x="378.89" y="166.17" width="13.53" height="15"/><rect class="cls-4" x="379.89" y="172.7" width="2.51" height="1.5"/><rect class="cls-4" x="384.4" y="172.7" width="2.51" height="1.5"/><rect class="cls-4" x="388.89" y="172.7" width="2.51" height="1.5"/><rect class="cls-3" x="365.36" y="166.17" width="13.53" height="15"/><rect class="cls-4" x="366.36" y="172.7" width="2.51" height="1.5"/><rect class="cls-4" x="370.87" y="172.7" width="2.51" height="1.5"/><rect class="cls-4" x="375.36" y="172.7" width="2.51" height="1.5"/><rect class="cls-3" x="351.83" y="166.17" width="13.53" height="15"/><rect class="cls-4" x="352.83" y="172.7" width="2.51" height="1.5"/><rect class="cls-4" x="357.33" y="172.7" width="2.51" height="1.5"/><rect class="cls-4" x="361.82" y="172.7" width="2.51" height="1.5"/><rect class="cls-3" x="338.3" y="166.17" width="13.53" height="15"/><rect class="cls-4" x="339.3" y="172.7" width="2.51" height="1.5"/><rect class="cls-4" x="343.8" y="172.7" width="2.51" height="1.5"/><rect class="cls-4" x="348.29" y="172.7" width="2.51" height="1.5"/><rect class="cls-3" x="324.77" y="166.17" width="13.53" height="15"/><rect class="cls-4" x="325.77" y="172.7" width="2.51" height="1.5"/><rect class="cls-4" x="330.27" y="172.7" width="2.51" height="1.5"/><rect class="cls-4" x="334.76" y="172.7" width="2.51" height="1.5"/><rect class="cls-3" x="311.23" y="166.17" width="13.53" height="15"/><rect class="cls-4" x="312.23" y="172.7" width="2.51" height="1.5"/><rect class="cls-4" x="316.74" y="172.7" width="2.51" height="1.5"/><rect class="cls-4" x="321.23" y="172.7" width="2.51" height="1.5"/><rect class="cls-3" x="297.7" y="166.17" width="13.53" height="15"/><rect class="cls-4" x="298.7" y="172.7" width="2.51" height="1.5"/><rect class="cls-4" x="303.21" y="172.7" width="2.51" height="1.5"/><rect class="cls-4" x="307.7" y="172.7" width="2.51" height="1.5"/><rect class="cls-3" x="284.17" y="166.17" width="13.53" height="15"/><rect class="cls-4" x="285.17" y="172.7" width="2.51" height="1.5"/><rect class="cls-4" x="289.67" y="172.7" width="2.51" height="1.5"/><rect class="cls-4" x="294.17" y="172.7" width="2.51" height="1.5"/><rect class="cls-3" x="270.64" y="166.17" width="13.53" height="15"/><rect class="cls-4" x="271.64" y="172.7" width="2.51" height="1.5"/><rect class="cls-4" x="276.14" y="172.7" width="2.51" height="1.5"/><rect class="cls-4" x="280.63" y="172.7" width="2.51" height="1.5"/><rect class="cls-3" x="257.11" y="166.17" width="13.53" height="15"/><rect class="cls-4" x="258.11" y="172.7" width="2.51" height="1.5"/><rect class="cls-4" x="262.61" y="172.7" width="2.51" height="1.5"/><rect class="cls-4" x="267.1" y="172.7" width="2.51" height="1.5"/><rect class="cls-3" x="243.57" y="166.17" width="13.53" height="15"/><rect class="cls-4" x="244.57" y="172.7" width="2.51" height="1.5"/><rect class="cls-4" x="249.08" y="172.7" width="2.51" height="1.5"/><rect class="cls-4" x="253.57" y="172.7" width="2.51" height="1.5"/><rect class="cls-3" x="230.04" y="166.17" width="13.53" height="15"/><rect class="cls-4" x="231.04" y="172.7" width="2.51" height="1.5"/><rect class="cls-4" x="235.55" y="172.7" width="2.51" height="1.5"/><rect class="cls-4" x="240.04" y="172.7" width="2.51" height="1.5"/><rect class="cls-3" x="216.51" y="166.17" width="13.53" height="15"/><rect class="cls-4" x="217.51" y="172.7" width="2.51" height="1.5"/><rect class="cls-4" x="222.02" y="172.7" width="2.51" height="1.5"/><rect class="cls-4" x="226.51" y="172.7" width="2.51" height="1.5"/><rect class="cls-3" x="202.98" y="166.17" width="13.53" height="15"/><rect class="cls-4" x="203.98" y="172.7" width="2.51" height="1.5"/><rect class="cls-4" x="208.48" y="172.7" width="2.51" height="1.5"/><rect class="cls-4" x="212.97" y="172.7" width="2.51" height="1.5"/><rect class="cls-3" x="189.45" y="166.17" width="13.53" height="15"/><rect class="cls-4" x="190.45" y="172.7" width="2.51" height="1.5"/><rect class="cls-4" x="194.95" y="172.7" width="2.51" height="1.5"/><rect class="cls-4" x="199.44" y="172.7" width="2.51" height="1.5"/><rect class="cls-3" x="175.91" y="166.17" width="13.53" height="15"/><rect class="cls-4" x="176.91" y="172.7" width="2.51" height="1.5"/><rect class="cls-4" x="181.42" y="172.7" width="2.51" height="1.5"/><rect class="cls-4" x="185.91" y="172.7" width="2.51" height="1.5"/><rect class="cls-3" x="162.38" y="166.17" width="13.53" height="15"/><rect class="cls-4" x="163.38" y="172.7" width="2.51" height="1.5"/><rect class="cls-4" x="167.89" y="172.7" width="2.51" height="1.5"/><rect class="cls-4" x="172.38" y="172.7" width="2.51" height="1.5"/><rect class="cls-3" x="148.85" y="166.17" width="13.53" height="15"/><rect class="cls-4" x="149.85" y="172.7" width="2.51" height="1.5"/><rect class="cls-4" x="154.36" y="172.7" width="2.51" height="1.5"/><rect class="cls-4" x="158.85" y="172.7" width="2.51" height="1.5"/><rect class="cls-3" x="135.32" y="166.17" width="13.53" height="15"/><rect class="cls-4" x="136.32" y="172.7" width="2.51" height="1.5"/><rect class="cls-4" x="140.82" y="172.7" width="2.51" height="1.5"/><rect class="cls-4" x="145.31" y="172.7" width="2.51" height="1.5"/><rect class="cls-3" x="121.79" y="166.17" width="13.53" height="15"/><rect class="cls-4" x="122.79" y="172.7" width="2.51" height="1.5"/><rect class="cls-4" x="127.29" y="172.7" width="2.51" height="1.5"/><rect class="cls-4" x="131.78" y="172.7" width="2.51" height="1.5"/><rect class="cls-3" x="108.26" y="166.17" width="13.53" height="15"/><rect class="cls-4" x="109.26" y="172.7" width="2.51" height="1.5"/><rect class="cls-4" x="113.76" y="172.7" width="2.51" height="1.5"/><rect class="cls-4" x="118.25" y="172.7" width="2.51" height="1.5"/><rect class="cls-3" x="94.72" y="166.17" width="13.53" height="15"/><rect class="cls-4" x="95.72" y="172.7" width="2.51" height="1.5"/><rect class="cls-4" x="100.23" y="172.7" width="2.51" height="1.5"/><rect class="cls-4" x="104.72" y="172.7" width="2.51" height="1.5"/><rect class="cls-3" x="81.19" y="166.17" width="13.53" height="15"/><rect class="cls-4" x="82.19" y="172.7" width="2.51" height="1.5"/><rect class="cls-4" x="86.7" y="172.7" width="2.51" height="1.5"/><rect class="cls-4" x="91.19" y="172.7" width="2.51" height="1.5"/><rect class="cls-3" x="67.66" y="166.17" width="13.53" height="15"/><rect class="cls-4" x="68.66" y="172.7" width="2.51" height="1.5"/><rect class="cls-4" x="73.16" y="172.7" width="2.51" height="1.5"/><rect class="cls-4" x="77.65" y="172.7" width="2.51" height="1.5"/><rect class="cls-3" x="54.13" y="166.17" width="13.53" height="15"/><rect class="cls-4" x="55.13" y="172.7" width="2.51" height="1.5"/><rect class="cls-4" x="59.63" y="172.7" width="2.51" height="1.5"/><rect class="cls-4" x="64.12" y="172.7" width="2.51" height="1.5"/><rect class="cls-3" x="40.6" y="166.17" width="13.53" height="15"/><rect class="cls-4" x="41.6" y="172.7" width="2.51" height="1.5"/><rect class="cls-4" x="46.1" y="172.7" width="2.51" height="1.5"/><rect class="cls-4" x="50.59" y="172.7" width="2.51" height="1.5"/><rect class="cls-3" x="27.06" y="166.17" width="13.53" height="15"/><rect class="cls-4" x="28.06" y="172.7" width="2.51" height="1.5"/><rect class="cls-4" x="32.57" y="172.7" width="2.51" height="1.5"/><rect class="cls-4" x="37.06" y="172.7" width="2.51" height="1.5"/><rect class="cls-3" x="13.53" y="166.17" width="13.53" height="15"/><rect class="cls-4" x="14.53" y="172.7" width="2.51" height="1.5"/><rect class="cls-4" x="19.04" y="172.7" width="2.51" height="1.5"/><rect class="cls-4" x="23.53" y="172.7" width="2.51" height="1.5"/><rect class="cls-3" y="166.17" width="13.53" height="15"/><rect class="cls-4" x="1" y="172.7" width="2.51" height="1.5"/><rect class="cls-4" x="5.5" y="172.7" width="2.51" height="1.5"/><rect class="cls-4" x="9.99" y="172.7" width="2.51" height="1.5"/><text class="cls-5" transform="translate(83.23 186.8)">(0, 0)</text><text class="cls-5" transform="translate(67.82 72.43) rotate(-90)"><tspan class="cls-6">Y</tspan><tspan x="5.88" y="0">-axis (me</tspan><tspan class="cls-7" x="50.44" y="0">t</tspan><tspan x="54.34" y="0">ers)</tspan></text><text class="cls-8" transform="translate(370.47 193.05)">X<tspan class="cls-9" x="6.6" y="0">-axis (me</tspan><tspan class="cls-10" x="51.16" y="0">t</tspan><tspan class="cls-11" x="55.06" y="0">ers)</tspan></text><line class="cls-12" x1="81.25" y1="173.67" x2="142.47" y2="173.67"/><polygon class="cls-12" points="81.25 174.46 131.08 174.46 131.08 180.25 142.47 173.67 131.08 167.09 131.08 172.88 81.25 172.88 81.25 174.46"/><text class="cls-13" transform="translate(139.4 167.4)">16.66 m/s</text><line class="cls-12" x1="78.46" y1="158.93" x2="78.46" y2="220.15"/><polygon class="cls-14" points="77.67 158.93 77.67 208.76 71.88 208.76 78.46 220.15 85.04 208.76 79.25 208.76 79.25 158.93 77.67 158.93"/><line class="cls-12" x1="78.46" y1="190.89" x2="78.46" y2="129.67"/><polygon class="cls-14" points="79.25 190.89 79.25 141.06 85.04 141.06 78.46 129.67 71.88 141.06 77.67 141.06 77.67 190.89 79.25 190.89"/><text class="cls-15" transform="translate(87.32 124.84)"><tspan xml:space="preserve">delta P_y  </tspan></text><text class="cls-16" transform="translate(27.74 190.89)">m = 2kg</text><text class="cls-15" transform="translate(160.34 124.84)">N(0, 2.77) kg*m/s</text><path class="cls-17" d="M152.67,115.93s-7.4.76-7.4,3.06v4.77c0,.59,4.17,2.13,7.4,2"/><line class="cls-17" x1="152.55" y1="120.87" x2="145.27" y2="120.87"/><text class="cls-16" transform="translate(143.57 221.54)">dt = 5 s</text></g></g></svg>