<svg xmlns="http://www.w3.org/2000/svg" viewBox="0 0 431.31 198.45"><defs><style>.cls-1{fill:#27aae1;stroke:#1b75bc;}.cls-1,.cls-3,.cls-4{stroke-miterlimit:10;}.cls-11,.cls-12,.cls-2,.cls-6,.cls-7{font-size:16px;font-family:MyriadPro-Regular, Myriad Pro;}.cls-2{fill:#fff;}.cls-3{fill:#39b54a;stroke:#009444;}.cls-4{fill:#fbb040;stroke:#f7941d;}.cls-11,.cls-12,.cls-5,.cls-6,.cls-7{fill:#231f20;}.cls-7{letter-spacing:-0.01em;}.cls-8{letter-spacing:0em;}.cls-9{letter-spacing:-0.03em;}.cls-10{letter-spacing:-0.1em;}.cls-11{letter-spacing:-0.01em;}.cls-12{letter-spacing:0.02em;}</style></defs><title>Asset 3</title><g id="Layer_2" data-name="Layer 2"><g id="Layer_1-2" data-name="Layer 1"><circle class="cls-1" cx="215.65" cy="99.22" r="19.74"/><text class="cls-2" transform="translate(211.64 103.49)">5</text><circle class="cls-1" cx="117.95" cy="99.22" r="19.74"/><text class="cls-2" transform="translate(113.93 103.49)">3</text><circle class="cls-1" cx="117.95" cy="20.24" r="19.74"/><text class="cls-2" transform="translate(113.93 24.51)">2</text><circle class="cls-1" cx="215.65" cy="20.24" r="19.74"/><text class="cls-2" transform="translate(211.64 24.51)">4</text><circle class="cls-3" cx="20.24" cy="59.73" r="19.74"/><text class="cls-2" transform="translate(16.23 64)">1</text><circle class="cls-1" cx="215.65" cy="178.2" r="19.74"/><text class="cls-2" transform="translate(211.64 182.47)">6</text><circle class="cls-1" cx="313.36" cy="59.73" r="19.74"/><text class="cls-2" transform="translate(309.34 64)">7</text><circle class="cls-1" cx="313.36" cy="138.71" r="19.74"/><text class="cls-2" transform="translate(309.34 142.98)">8</text><circle class="cls-4" cx="411.06" cy="99.22" r="19.74"/><text class="cls-2" transform="translate(407.05 103.49)">9</text><line class="cls-5" x1="34.87" y1="46.47" x2="98.2" y2="22.73"/><polygon class="cls-5" points="85.09 28.49 86.16 31.34 98.21 22.73 83.47 24.16 84.54 27.01 34.59 45.73 35.15 47.21 85.09 28.49"/><line class="cls-5" x1="34.87" y1="72.01" x2="98.2" y2="97.79"/><polygon class="cls-5" points="84.66 93.14 83.51 95.95 98.2 97.8 86.41 88.85 85.26 91.67 35.17 71.27 34.57 72.74 84.66 93.14"/><line class="cls-5" x1="137.69" y1="20.24" x2="195.91" y2="20.24"/><polygon class="cls-5" points="181.61 21.04 181.61 24.08 195.91 20.25 181.61 16.41 181.61 19.45 137.69 19.45 137.69 21.04 181.61 21.04"/><line class="cls-5" x1="134.1" y1="87.87" x2="201.26" y2="33.75"/><polygon class="cls-5" points="190.62 43.34 192.53 45.71 201.26 33.76 187.72 39.74 189.63 42.11 133.6 87.25 134.6 88.49 190.62 43.34"/><line class="cls-5" x1="137.69" y1="97.79" x2="194.91" y2="97.79"/><polygon class="cls-5" points="180.61 98.59 180.61 101.63 194.91 97.8 180.61 93.96 180.61 97 137.69 97 137.69 98.59 180.61 98.59"/><line class="cls-5" x1="134.1" y1="110.58" x2="196.26" y2="174.5"/><polygon class="cls-5" points="185.72 164.8 183.54 166.92 196.26 174.5 189.04 161.57 186.86 163.69 134.67 110.02 133.53 111.13 185.72 164.8"/><line class="cls-5" x1="235.4" y1="20.24" x2="296.6" y2="49.3"/><polygon class="cls-5" points="283.34 43.88 282.04 46.63 296.6 49.3 285.32 39.7 284.02 42.45 235.74 19.53 235.06 20.96 283.34 43.88"/><line class="cls-5" x1="235.4" y1="99.22" x2="296.6" y2="72.01"/><polygon class="cls-5" points="283.85 78.54 285.09 81.32 296.6 72.01 281.97 74.32 283.21 77.09 235.08 98.5 235.72 99.95 283.85 78.54"/><line class="cls-5" x1="235.4" y1="178.2" x2="293.61" y2="142.54"/><polygon class="cls-5" points="281.83 150.68 283.42 153.28 293.62 142.54 279.42 146.74 281 149.33 234.99 177.53 235.81 178.88 281.83 150.68"/><line class="cls-5" x1="333.07" y1="60.81" x2="395.37" y2="87.24"/><polygon class="cls-5" points="381.9 82.39 380.71 85.19 395.37 87.25 383.7 78.13 382.52 80.93 333.38 60.08 332.76 61.54 381.9 82.39"/><line class="cls-5" x1="333.07" y1="137.63" x2="395.37" y2="111.21"/><polygon class="cls-5" points="382.52 117.52 383.7 120.32 395.37 111.21 380.71 113.26 381.9 116.06 332.76 136.91 333.38 138.36 382.52 117.52"/><text class="cls-6" transform="translate(46.74 31.38)">A, 6</text><text class="cls-7" transform="translate(46.74 97.79)">B<tspan class="cls-8" x="8.46" y="0">, 4</tspan></text><text class="cls-6" transform="translate(157.8 13.77)">C, 3</text><text class="cls-6" transform="translate(134.1 64)"><tspan class="cls-9">D</tspan><tspan x="10.11" y="0">, 9</tspan></text><text class="cls-6" transform="translate(149.16 94.7)"><tspan class="cls-10">F</tspan><tspan x="6.24" y="0">, 10</tspan></text><text class="cls-6" transform="translate(134.1 150.62)">I, 15</text><text class="cls-11" transform="translate(259.46 24.51)">J<tspan class="cls-8" x="5.73" y="0">, 9</tspan></text><text class="cls-12" transform="translate(244.76 82.19)">K<tspan class="cls-8" x="8.94" y="0">, 2</tspan></text><text class="cls-6" transform="translate(253.08 180.49)">L, 3</text><text class="cls-6" transform="translate(350.1 64)">M, 15</text><text class="cls-6" transform="translate(350.1 143.98)">N, 9</text></g></g></svg>