<svg xmlns="http://www.w3.org/2000/svg" viewBox="0 0 431.31 238.13"><defs><style>.cls-1{fill:#27aae1;stroke:#1b75bc;}.cls-1,.cls-3,.cls-4{stroke-miterlimit:10;}.cls-2{font-size:16px;fill:#fff;}.cls-13,.cls-14,.cls-15,.cls-16,.cls-2,.cls-7{font-family:MyriadPro-Regular, Myriad Pro;}.cls-3{fill:#39b54a;stroke:#009444;}.cls-4{fill:#fbb040;stroke:#f7941d;}.cls-5,.cls-7{fill:#231f20;}.cls-15,.cls-6{fill:#be1e2d;}.cls-13,.cls-14,.cls-15,.cls-16,.cls-7{font-size:10px;}.cls-8{letter-spacing:-0.01em;}.cls-9{letter-spacing:-0.03em;}.cls-10{letter-spacing:-0.1em;}.cls-11{letter-spacing:-0.01em;}.cls-12{letter-spacing:0.02em;}.cls-13{fill:#00a651;}.cls-14{fill:#00aeef;}.cls-16{fill:#8b5e3c;}.cls-17{letter-spacing:0em;}.cls-18{letter-spacing:0em;}.cls-19{letter-spacing:0.02em;}.cls-20{letter-spacing:-0.03em;}.cls-21{letter-spacing:0em;}.cls-22{letter-spacing:0em;}.cls-23{letter-spacing:-0.01em;}.cls-24{letter-spacing:0em;}.cls-25{letter-spacing:0em;}.cls-26{letter-spacing:0em;}.cls-27{letter-spacing:-0.03em;}</style></defs><title>Asset 4</title><g id="Layer_2" data-name="Layer 2"><g id="Layer_1-2" data-name="Layer 1"><circle class="cls-1" cx="215.65" cy="138.66" r="19.74"/><text class="cls-2" transform="translate(211.64 142.93)">5</text><circle class="cls-1" cx="117.95" cy="138.66" r="19.74"/><text class="cls-2" transform="translate(113.93 142.93)">3</text><circle class="cls-1" cx="117.95" cy="59.68" r="19.74"/><text class="cls-2" transform="translate(113.93 63.95)">2</text><circle class="cls-1" cx="215.65" cy="59.68" r="19.74"/><text class="cls-2" transform="translate(211.64 63.95)">4</text><circle class="cls-3" cx="20.24" cy="99.17" r="19.74"/><text class="cls-2" transform="translate(16.23 103.44)">1</text><circle class="cls-1" cx="215.65" cy="217.64" r="19.74"/><text class="cls-2" transform="translate(211.64 221.91)">6</text><circle class="cls-1" cx="313.36" cy="99.17" r="19.74"/><text class="cls-2" transform="translate(309.34 103.44)">7</text><circle class="cls-1" cx="313.36" cy="178.15" r="19.74"/><text class="cls-2" transform="translate(309.34 182.42)">8</text><circle class="cls-4" cx="411.06" cy="138.66" r="19.74"/><text class="cls-2" transform="translate(407.05 142.93)">9</text><line class="cls-5" x1="34.87" y1="85.91" x2="98.2" y2="62.17"/><polygon class="cls-5" points="85.09 67.93 86.16 70.78 98.21 62.17 83.47 63.6 84.54 66.45 34.59 85.17 35.15 86.65 85.09 67.93"/><polygon class="cls-6" points="84.66 132.57 83.51 135.39 98.2 137.24 86.41 128.29 85.26 131.11 35.17 110.71 34.57 112.18 84.66 132.57"/><line class="cls-5" x1="137.69" y1="59.68" x2="195.91" y2="59.68"/><polygon class="cls-5" points="181.61 60.48 181.61 63.52 195.91 59.69 181.61 55.85 181.61 58.89 137.69 58.89 137.69 60.48 181.61 60.48"/><polygon class="cls-6" points="190.62 82.78 192.53 85.15 201.26 73.19 187.72 79.18 189.63 81.55 133.6 126.69 134.6 127.93 190.62 82.78"/><line class="cls-5" x1="137.69" y1="137.23" x2="194.91" y2="137.23"/><polygon class="cls-5" points="180.61 138.03 180.61 141.06 194.91 137.24 180.61 133.4 180.61 136.44 137.69 136.44 137.69 138.03 180.61 138.03"/><line class="cls-5" x1="134.1" y1="150.01" x2="196.26" y2="213.94"/><polygon class="cls-5" points="185.72 204.24 183.54 206.36 196.26 213.94 189.04 201.01 186.86 203.13 134.67 149.46 133.53 150.57 185.72 204.24"/><polygon class="cls-6" points="283.34 83.32 282.04 86.06 296.6 88.74 285.32 79.14 284.02 81.89 235.74 58.97 235.06 60.4 283.34 83.32"/><line class="cls-5" x1="235.4" y1="138.66" x2="296.6" y2="111.45"/><polygon class="cls-5" points="283.85 117.98 285.09 120.76 296.6 111.45 281.97 113.75 283.21 116.53 235.08 137.94 235.72 139.39 283.85 117.98"/><line class="cls-5" x1="235.4" y1="217.64" x2="293.61" y2="181.98"/><polygon class="cls-5" points="281.83 190.12 283.42 192.72 293.62 181.98 279.42 186.18 281 188.77 234.98 216.97 235.81 218.32 281.83 190.12"/><polygon class="cls-6" points="381.9 121.83 380.71 124.62 395.37 126.68 383.7 117.57 382.52 120.37 333.38 99.52 332.76 100.98 381.9 121.83"/><line class="cls-5" x1="333.07" y1="177.07" x2="395.37" y2="150.64"/><polygon class="cls-5" points="382.52 156.96 383.7 159.76 395.37 150.65 380.71 152.7 381.9 155.5 332.76 176.34 333.38 177.8 382.52 156.96"/><text class="cls-7" transform="translate(46.74 70.82)">A, 6</text><text class="cls-7" transform="translate(41.57 134.14)"><tspan class="cls-8">B</tspan><tspan x="5.29" y="0">, 4.33</tspan></text><text class="cls-7" transform="translate(149.16 47.69)">C, 3.33</text><text class="cls-7" transform="translate(147.89 100.25)"><tspan class="cls-9">D</tspan><tspan x="6.32" y="0">, 9</tspan></text><text class="cls-7" transform="translate(154.78 134.14)"><tspan class="cls-10">F</tspan><tspan x="3.9" y="0">, 10</tspan></text><text class="cls-7" transform="translate(116.67 195.29)">I, 15.83</text><text class="cls-7" transform="translate(263.29 52.21)"><tspan class="cls-11">J</tspan><tspan x="3.58" y="0">, 8.83</tspan></text><text class="cls-7" transform="translate(267.53 132.51)"><tspan class="cls-12">K</tspan><tspan x="5.59" y="0">, 2</tspan></text><text class="cls-7" transform="translate(266 225.17)">L, 3.33</text><text class="cls-7" transform="translate(362.35 97.2)">M, 15</text><text class="cls-7" transform="translate(368.48 185.81)">N, 8.83</text><text class="cls-13" transform="translate(34.87 61.24)">0</text><text class="cls-13" transform="translate(140.5 36.94)">6</text><text class="cls-13" transform="translate(34.87 122.4)">0</text><text class="cls-13" transform="translate(245.38 41.12)">13.33</text><text class="cls-13" transform="translate(346.21 88.73)">22.16</text><text class="cls-13" transform="translate(126.9 91.12)">4.33</text><text class="cls-13" transform="translate(142.74 126.67)">4.33</text><text class="cls-13" transform="translate(100.77 184.95)">4.33</text><text class="cls-13" transform="translate(240.8 125.05)">14.33</text><text class="cls-13" transform="translate(249.1 216.69)">20.16</text><text class="cls-13" transform="translate(350.09 178.15)">23.49</text><text class="cls-14" transform="translate(66.54 61.24)">6</text><text class="cls-14" transform="translate(179.17 36.94)">9.33</text><text class="cls-14" transform="translate(283.87 41.12)">22.16</text><text class="cls-14" transform="translate(163.96 91.12)">13.33</text><text class="cls-14" transform="translate(381.75 87.18)">37.16</text><text class="cls-14" transform="translate(65.15 120.97)">4.33</text><text class="cls-14" transform="translate(166.8 126.67)">14.33</text><text class="cls-14" transform="translate(391.32 175.58)">32.32</text><text class="cls-14" transform="translate(289.31 216.69)">23.49</text><text class="cls-14" transform="translate(137.69 184.95)">20.16</text><text class="cls-14" transform="translate(283.87 127.31)">16.33</text><text class="cls-15" transform="translate(381.75 105.37)">37.16</text><text class="cls-15" transform="translate(391.32 195.29)">37.16</text><text class="cls-15" transform="translate(283.87 63.17)">22.16</text><text class="cls-15" transform="translate(289.31 234.35)">28.33</text><text class="cls-15" transform="translate(174.29 54.56)">13.33</text><text class="cls-15" transform="translate(65.15 81.41)">10</text><text class="cls-15" transform="translate(66.54 145.76)">4.33</text><text class="cls-15" transform="translate(167.68 147.6)">20.16</text><text class="cls-15" transform="translate(165.18 110.42)">13.33</text><text class="cls-15" transform="translate(283.87 142.93)">22.16</text><text class="cls-15" transform="translate(137.69 204.62)">25</text><text class="cls-16" transform="translate(346.21 105.37)">22.16</text><text class="cls-16" transform="translate(349.02 195.29)">28.33</text><text class="cls-16" transform="translate(254.21 235.63)">25</text><text class="cls-16" transform="translate(242.82 142.93)">20.16</text><text class="cls-16" transform="translate(245.38 62.17)">13.33</text><text class="cls-16" transform="translate(139.4 55.88)">10</text><text class="cls-16" transform="translate(126.9 111.45)">4.33</text><text class="cls-16" transform="translate(140.5 147.6)">10.16</text><text class="cls-16" transform="translate(100.77 205.64)">9.17</text><text class="cls-16" transform="translate(34.87 147.6)">0</text><text class="cls-16" transform="translate(35.8 81.41)">4</text><text class="cls-13" transform="translate(329.89 8.37)">ES - Ea<tspan class="cls-17" x="26.9" y="0">r</tspan><tspan x="30.21" y="0">liest </tspan><tspan class="cls-18" x="49.31" y="0">S</tspan><tspan x="54.21" y="0">ta</tspan><tspan class="cls-19" x="62.34" y="0">r</tspan><tspan x="65.85" y="0">t</tspan></text><text class="cls-14" transform="translate(329.89 23.18)">EF - Ea<tspan class="cls-17" x="26.84" y="0">r</tspan><tspan x="30.15" y="0">liest </tspan><tspan class="cls-20" x="49.25" y="0">F</tspan><tspan class="cls-21" x="53.86" y="0">inish</tspan></text><text class="cls-16" transform="translate(329.89 36.94)">LS - L<tspan class="cls-22" x="21.68" y="0">a</tspan><tspan class="cls-23" x="26.46" y="0">t</tspan><tspan x="29.71" y="0">est </tspan><tspan class="cls-24" x="44.11" y="0">S</tspan><tspan class="cls-25" x="49.01" y="0">ta</tspan><tspan class="cls-19" x="57.14" y="0">r</tspan><tspan x="60.65" y="0">t</tspan></text><text class="cls-15" transform="translate(329.89 52.21)">LF - L<tspan class="cls-26" x="21.62" y="0">a</tspan><tspan class="cls-23" x="26.4" y="0">t</tspan><tspan x="29.65" y="0">est </tspan><tspan class="cls-27" x="44.05" y="0">F</tspan><tspan x="48.66" y="0">inish</tspan></text></g></g></svg>