<svg xmlns="http://www.w3.org/2000/svg" viewBox="0 0 328.49 250.24"><defs><style>.cls-1{fill:#39b54a;stroke:#006838;}.cls-1,.cls-2,.cls-3{stroke-miterlimit:10;}.cls-2{fill:#27aae1;stroke:#1b75bc;}.cls-3{fill:#fbb040;stroke:#f7941d;}.cls-4,.cls-8{fill:#231f20;}.cls-5,.cls-7,.cls-8{font-size:16px;font-family:MyriadPro-Regular, Myriad Pro;}.cls-5,.cls-7{fill:#fff;}.cls-5{letter-spacing:0.01em;}.cls-6{letter-spacing:0em;}</style></defs><title>Asset 1</title><g id="Layer_2" data-name="Layer 2"><g id="Layer_1-2" data-name="Layer 1"><circle class="cls-1" cx="20.24" cy="124.86" r="19.74"/><circle class="cls-2" cx="116.24" cy="228.18" r="19.74"/><circle class="cls-2" cx="116.24" cy="21.54" r="19.74"/><circle class="cls-2" cx="208.16" cy="228.18" r="19.74"/><circle class="cls-2" cx="208.16" cy="124.86" r="19.74"/><circle class="cls-2" cx="208.16" cy="21.54" r="19.74"/><circle class="cls-3" cx="308.24" cy="124.86" r="19.74"/><line class="cls-4" x1="34.97" y1="138.01" x2="101.15" y2="215.45"/><polygon class="cls-4" points="91.25 205.1 88.94 207.07 101.15 215.46 94.77 202.09 92.46 204.07 35.57 137.5 34.36 138.53 91.25 205.1"/><line class="cls-4" x1="34.97" y1="111.7" x2="101.78" y2="36.69"/><polygon class="cls-4" points="92.86 47.89 95.13 49.91 101.78 36.69 89.4 44.82 91.67 46.84 34.37 111.17 35.56 112.23 92.86 47.89"/><text class="cls-5" transform="translate(11.42 129.33)">S<tspan class="cls-6" x="7.98" y="0">o</tspan></text><line class="cls-4" x1="135.99" y1="228.18" x2="186.88" y2="228.18"/><polygon class="cls-4" points="172.58 228.97 172.58 232.01 186.88 228.18 172.58 224.34 172.58 227.38 135.99 227.38 135.99 228.97 172.58 228.97"/><line class="cls-4" x1="104.61" y1="213.03" x2="104.61" y2="38.73"/><polygon class="cls-4" points="105.4 53.03 108.44 53.03 104.61 38.73 100.78 53.03 103.82 53.03 103.82 213.03 105.4 213.03 105.4 53.03"/><text class="cls-7" transform="translate(107.56 231.3)">N1</text><text class="cls-7" transform="translate(107.9 25.51)">N2</text><text class="cls-7" transform="translate(198.45 231.3)">N3</text><text class="cls-7" transform="translate(198.45 128.36)">N4</text><text class="cls-7" transform="translate(198.45 25.52)">N5</text><text class="cls-7" transform="translate(303.11 129.19)">Si</text><line class="cls-4" x1="125.27" y1="37.71" x2="125.27" y2="212"/><polygon class="cls-4" points="124.47 197.7 121.43 197.7 125.26 212 129.1 197.7 126.06 197.7 126.06 37.71 124.47 37.71 124.47 197.7"/><line class="cls-4" x1="135.99" y1="21.54" x2="186.88" y2="21.54"/><polygon class="cls-4" points="172.58 22.33 172.58 25.37 186.88 21.54 172.58 17.7 172.58 20.75 135.99 20.75 135.99 22.33 172.58 22.33"/><line class="cls-4" x1="133" y1="31.98" x2="193.44" y2="111.7"/><polygon class="cls-4" points="184.17 100.78 181.75 102.62 193.44 111.7 187.85 97.99 185.43 99.83 133.63 31.5 132.37 32.46 184.17 100.78"/><line class="cls-4" x1="197.39" y1="211.63" x2="197.39" y2="141.4"/><polygon class="cls-4" points="198.18 155.7 201.22 155.7 197.39 141.4 193.56 155.7 196.6 155.7 196.6 211.63 198.18 211.63 198.18 155.7"/><line class="cls-4" x1="212.52" y1="142.52" x2="212.52" y2="208.43"/><polygon class="cls-4" points="211.72 194.13 208.68 194.13 212.51 208.43 216.35 194.13 213.31 194.13 213.31 142.52 211.72 142.52 211.72 194.13"/><line class="cls-4" x1="197.95" y1="106.96" x2="197.95" y2="36.73"/><polygon class="cls-4" points="198.74 51.03 201.78 51.03 197.95 36.73 194.11 51.03 197.15 51.03 197.15 106.96 198.74 106.96 198.74 51.03"/><line class="cls-4" x1="212.51" y1="41.28" x2="212.52" y2="105.6"/><polygon class="cls-4" points="211.72 91.3 208.68 91.3 212.51 105.6 216.35 91.3 213.31 91.3 213.31 41.28 211.72 41.28 211.72 91.3"/><line class="cls-4" x1="227.9" y1="228.18" x2="297.47" y2="141.4"/><polygon class="cls-4" points="289.15 153.05 291.52 154.96 297.48 141.4 285.54 150.16 287.91 152.06 227.29 227.68 228.52 228.67 289.15 153.05"/><line class="cls-4" x1="227.9" y1="124.86" x2="288.5" y2="124.86"/><polygon class="cls-4" points="274.2 125.65 274.2 128.69 288.5 124.86 274.2 121.02 274.2 124.06 227.9 124.06 227.9 125.65 274.2 125.65"/><line class="cls-4" x1="227.9" y1="24.43" x2="295.39" y2="109.88"/><polygon class="cls-4" points="285.9 99.15 283.52 101.03 295.39 109.88 289.53 96.28 287.15 98.16 228.53 23.94 227.28 24.92 285.9 99.15"/><text class="cls-8" transform="translate(43.25 187.73)">60</text><text class="cls-8" transform="translate(43.25 77.05)">30</text><text class="cls-8" transform="translate(83.59 134.5)">10</text><text class="cls-8" transform="translate(129.14 134.5)">10</text><text class="cls-8" transform="translate(150.31 246.24)">50</text><text class="cls-8" transform="translate(143.78 80.8)">20</text><text class="cls-8" transform="translate(148.53 13.39)">70</text><text class="cls-8" transform="translate(178.83 77.05)">20</text><text class="cls-8" transform="translate(215 77.05)">10</text><text class="cls-8" transform="translate(178.83 187.73)">10</text><text class="cls-8" transform="translate(215 187.73)">20</text><text class="cls-8" transform="translate(259.18 203.35)">20</text><text class="cls-8" transform="translate(242.84 141.09)">50</text><text class="cls-8" transform="translate(263.61 68.33)">30</text></g></g></svg>