<svg xmlns="http://www.w3.org/2000/svg" viewBox="0 0 437.62 328.85"><defs><style>.cls-1{fill:#27aae1;stroke:#1b75bc;}.cls-1,.cls-5{stroke-miterlimit:10;}.cls-2{font-size:16px;fill:#fff;}.cls-2,.cls-6{font-family:MyriadPro-Regular, Myriad Pro;}.cls-3{letter-spacing:-0.01em;}.cls-4,.cls-6{fill:#231f20;}.cls-21,.cls-5{fill:none;}.cls-5{stroke:#231f20;}.cls-6{font-size:10px;}.cls-7{letter-spacing:0.02em;}.cls-8{letter-spacing:-0.01em;}.cls-9{letter-spacing:0.01em;}.cls-10{letter-spacing:0em;}.cls-11{letter-spacing:-0.01em;}.cls-12{letter-spacing:-0.01em;}.cls-13{letter-spacing:-0.01em;}.cls-14{letter-spacing:-0.01em;}.cls-15{letter-spacing:0.01em;}.cls-16{letter-spacing:-0.04em;}.cls-17{letter-spacing:0em;}.cls-18{letter-spacing:-0.01em;}.cls-19{letter-spacing:-0.01em;}.cls-20{letter-spacing:0em;}</style></defs><title>Asset 2</title><g id="Layer_2" data-name="Layer 2"><g id="Layer_1-2" data-name="Layer 1"><circle class="cls-1" cx="133.91" cy="45.61" r="19.74"/><text class="cls-2" transform="translate(125.3 49.88)">LA</text><circle class="cls-1" cx="30.64" cy="124.59" r="19.74"/><text class="cls-2" transform="translate(19.99 128.86)">BA</text><circle class="cls-1" cx="237.19" cy="124.59" r="19.74"/><text class="cls-2" transform="translate(229.09 128.86)">SE</text><circle class="cls-1" cx="133.91" cy="298.76" r="19.74"/><text class="cls-2" transform="translate(124.41 302.78)"><tspan class="cls-3">D</tspan><tspan x="10.43" y="0">A</tspan></text><circle class="cls-1" cx="237.19" cy="216" r="19.74"/><text class="cls-2" transform="translate(227.05 220.27)">CH</text><circle class="cls-1" cx="30.64" cy="216" r="19.74"/><text class="cls-2" transform="translate(19.99 220.27)">PH</text><line class="cls-4" x1="153.66" y1="46.13" x2="222.51" y2="111.38"/><line class="cls-5" x1="218.59" y1="107.66" x2="157.52" y2="49.78"/><polygon class="cls-4" points="159.54 48.34 157.11 49.4 156.18 51.88 153.66 46.13 159.54 48.34"/><polygon class="cls-4" points="216.63 109.17 219.06 108.11 219.99 105.62 222.51 111.38 216.63 109.17"/><line class="cls-4" x1="114.17" y1="45.61" x2="45.31" y2="111.38"/><line class="cls-5" x1="49.22" y1="107.65" x2="110.32" y2="49.28"/><polygon class="cls-4" points="111.67 51.38 110.73 48.89 108.3 47.84 114.17 45.61 111.67 51.38"/><polygon class="cls-4" points="47.81 105.61 48.75 108.1 51.19 109.15 45.31 111.38 47.81 105.61"/><line class="cls-4" x1="122.5" y1="61.71" x2="37.5" y2="197.48"/><line class="cls-5" x1="40.37" y1="192.9" x2="119.67" y2="66.22"/><polygon class="cls-4" points="121.49 67.92 119.97 65.74 117.35 65.32 122.5 61.71 121.49 67.92"/><polygon class="cls-4" points="38.5 191.28 40.02 193.45 42.64 193.87 37.5 197.48 38.5 191.28"/><line class="cls-4" x1="145.34" y1="61.71" x2="228.09" y2="198.06"/><line class="cls-5" x1="225.28" y1="193.45" x2="148.1" y2="66.26"/><polygon class="cls-4" points="150.43 65.39 147.8 65.78 146.25 67.93 145.34 61.71 150.43 65.39"/><polygon class="cls-4" points="222.99 194.38 225.62 194 227.17 191.85 228.09 198.06 222.99 194.38"/><line class="cls-4" x1="133.91" y1="65.35" x2="133.91" y2="279.02"/><line class="cls-5" x1="133.91" y1="273.62" x2="133.91" y2="70.67"/><polygon class="cls-4" points="136.36 71.14 133.91 70.11 131.47 71.14 133.91 65.36 136.36 71.14"/><polygon class="cls-4" points="131.47 273.23 133.91 274.26 136.36 273.23 133.91 279.02 131.47 273.23"/><line class="cls-4" x1="217.44" y1="124.59" x2="50.38" y2="124.59"/><line class="cls-5" x1="55.78" y1="124.59" x2="212.13" y2="124.59"/><polygon class="cls-4" points="211.66 127.03 212.69 124.59 211.66 122.15 217.44 124.59 211.66 127.03"/><polygon class="cls-4" points="56.17 122.15 55.13 124.59 56.17 127.03 50.38 124.59 56.17 122.15"/><line class="cls-4" x1="220.52" y1="205.42" x2="47.3" y2="134.72"/><line class="cls-5" x1="52.31" y1="136.76" x2="215.6" y2="203.41"/><polygon class="cls-4" points="214.24 205.49 216.12 203.62 216.08 200.97 220.52 205.42 214.24 205.49"/><polygon class="cls-4" points="53.59 134.65 51.7 136.52 51.74 139.17 47.3 134.72 53.59 134.65"/><line class="cls-4" x1="125.3" y1="280.99" x2="39.57" y2="142.2"/><line class="cls-5" x1="42.41" y1="146.79" x2="122.51" y2="276.47"/><polygon class="cls-4" points="120.18 277.35 122.81 276.95 124.34 274.78 125.3 280.99 120.18 277.35"/><polygon class="cls-4" points="44.69 145.84 42.07 146.24 40.53 148.41 39.57 142.2 44.69 145.84"/><line class="cls-4" x1="30.64" y1="196.26" x2="30.64" y2="144.33"/><polyline class="cls-5" points="30.64 149.73 30.64 151.42 30.64 189.44 30.64 190.94"/><polygon class="cls-4" points="28.2 190.47 30.64 191.5 33.08 190.47 30.64 196.25 28.2 190.47"/><polygon class="cls-4" points="33.08 150.12 30.64 149.09 28.2 150.12 30.64 144.33 33.08 150.12"/><line class="cls-4" x1="47.3" y1="205.42" x2="220.24" y2="134.72"/><line class="cls-5" x1="215.24" y1="136.77" x2="52.23" y2="203.41"/><polygon class="cls-4" points="51.74 200.97 51.7 203.62 53.59 205.49 47.3 205.42 51.74 200.97"/><polygon class="cls-4" points="215.81 139.18 215.84 136.52 213.96 134.65 220.24 134.72 215.81 139.18"/><line class="cls-4" x1="217.44" y1="217.28" x2="50.38" y2="217.28"/><line class="cls-5" x1="55.78" y1="217.28" x2="212.13" y2="217.28"/><polygon class="cls-4" points="211.66 219.72 212.69 217.28 211.66 214.83 217.44 217.28 211.66 219.72"/><polygon class="cls-4" points="56.17 214.83 55.13 217.28 56.17 219.72 50.38 217.28 56.17 214.83"/><line class="cls-4" x1="44.12" y1="230.42" x2="118.53" y2="286.39"/><line class="cls-5" x1="114.21" y1="283.15" x2="48.36" y2="233.62"/><polygon class="cls-4" points="50.21 231.95 47.91 233.28 47.27 235.85 44.12 230.42 50.21 231.95"/><polygon class="cls-4" points="112.43 284.87 114.73 283.54 115.37 280.96 118.53 286.39 112.43 284.87"/><line class="cls-4" x1="229.09" y1="142.59" x2="142.52" y2="280.99"/><line class="cls-5" x1="145.39" y1="276.41" x2="226.27" y2="147.1"/><polygon class="cls-4" points="228.09 148.8 226.57 146.62 223.95 146.21 229.09 142.59 228.09 148.8"/><polygon class="cls-4" points="143.52 274.79 145.04 276.96 147.66 277.38 142.52 280.99 143.52 274.79"/><line class="cls-4" x1="222.47" y1="229.13" x2="149.3" y2="286.39"/><line class="cls-5" x1="153.55" y1="283.06" x2="218.28" y2="232.41"/><polygon class="cls-4" points="219.41 234.63 218.73 232.06 216.4 230.78 222.47 229.13 219.41 234.63"/><polygon class="cls-4" points="152.35 280.9 153.04 283.46 155.36 284.75 149.3 286.39 152.35 280.9"/><line class="cls-4" x1="237.19" y1="144.33" x2="237.19" y2="196.26"/><polyline class="cls-5" points="237.19 190.85 237.19 189.17 237.19 151.15 237.19 149.65"/><polygon class="cls-4" points="239.63 150.12 237.19 149.09 234.75 150.12 237.19 144.33 239.63 150.12"/><polygon class="cls-4" points="234.75 190.47 237.19 191.5 239.63 190.47 237.19 196.25 234.75 190.47"/><text class="cls-6" transform="translate(191.27 76.95)">90</text><text class="cls-6" transform="translate(168.16 96.33)">150</text><text class="cls-6" transform="translate(134.93 98.37)">100</text><text class="cls-6" transform="translate(105.08 98.37)">200</text><text class="cls-6" transform="translate(58.55 78.75)">250</text><text class="cls-6" transform="translate(238.47 176.5)">100</text><text class="cls-6" transform="translate(190.15 180.77)">120</text><text class="cls-6" transform="translate(155.96 153.78)">180</text><text class="cls-6" transform="translate(103.8 133.2)">240</text><text class="cls-6" transform="translate(197.32 258.41)">50</text><text class="cls-6" transform="translate(142.52 226.72)">120</text><text class="cls-6" transform="translate(155.96 192.75)">140</text><text class="cls-6" transform="translate(69.91 269.62)">100</text><text class="cls-6" transform="translate(82.44 244.08)">150</text><text class="cls-6" transform="translate(17.47 173.62)">30</text><text class="cls-6" transform="translate(214.42 16.29)">Bi<tspan class="cls-7" x="7.76" y="0">-</tspan><tspan x="11.01" y="0">di</tspan><tspan class="cls-8" x="18.99" y="0">r</tspan><tspan x="22.16" y="0">e</tspan><tspan class="cls-9" x="27.17" y="0">c</tspan><tspan x="31.78" y="0">tional a</tspan><tspan class="cls-10" x="62.59" y="0">r</tspan><tspan class="cls-11" x="65.9" y="0">r</tspan><tspan class="cls-12" x="69.07" y="0">o</tspan><tspan class="cls-13" x="74.49" y="0">w</tspan><tspan x="81.79" y="0">s (edges) sh</tspan><tspan class="cls-12" x="130.39" y="0">o</tspan><tspan x="135.81" y="0">wn </tspan><tspan class="cls-14" x="150.84" y="0">f</tspan><tspan x="153.63" y="0">or cla</tspan><tspan class="cls-10" x="176.17" y="0">r</tspan><tspan x="179.48" y="0">i</tspan><tspan class="cls-15" x="181.82" y="0">t</tspan><tspan class="cls-16" x="185.22" y="0">y</tspan><tspan x="189.54" y="0">.</tspan><tspan x="0" y="24">Bi</tspan><tspan class="cls-7" x="7.76" y="24">-</tspan><tspan x="11.01" y="24">di</tspan><tspan class="cls-8" x="18.99" y="24">r</tspan><tspan x="22.16" y="24">e</tspan><tspan class="cls-9" x="27.17" y="24">c</tspan><tspan x="31.78" y="24">tional a</tspan><tspan class="cls-10" x="62.59" y="24">r</tspan><tspan class="cls-11" x="65.9" y="24">r</tspan><tspan class="cls-12" x="69.07" y="24">o</tspan><tspan class="cls-13" x="74.49" y="24">w</tspan><tspan x="81.79" y="24">s (edges) should be </tspan><tspan x="0" y="36">i</tspan><tspan class="cls-17" x="2.34" y="36">n</tspan><tspan class="cls-18" x="7.85" y="36">t</tspan><tspan x="11.1" y="36">e</tspan><tspan class="cls-10" x="16.11" y="36">r</tspan><tspan x="19.42" y="36">p</tspan><tspan class="cls-11" x="25.11" y="36">r</tspan><tspan x="28.28" y="36">e</tspan><tspan class="cls-18" x="33.29" y="36">t</tspan><tspan x="36.54" y="36">ed as </tspan><tspan class="cls-15" x="60.21" y="36">t</tspan><tspan class="cls-8" x="63.61" y="36">w</tspan><tspan x="70.87" y="36">o uni</tspan><tspan class="cls-7" x="91.88" y="36">-</tspan><tspan x="95.13" y="36">di</tspan><tspan class="cls-11" x="103.11" y="36">r</tspan><tspan x="106.28" y="36">e</tspan><tspan class="cls-9" x="111.29" y="36">c</tspan><tspan x="115.89" y="36">tional a</tspan><tspan class="cls-10" x="146.71" y="36">r</tspan><tspan class="cls-8" x="150.01" y="36">r</tspan><tspan class="cls-19" x="153.18" y="36">o</tspan><tspan class="cls-18" x="158.6" y="36">w</tspan><tspan x="165.91" y="36">s </tspan><tspan x="0" y="48">(edges) with same </tspan><tspan class="cls-18" x="77.94" y="48">c</tspan><tspan x="82.36" y="48">os</tspan><tspan class="cls-20" x="91.81" y="48">t</tspan><tspan x="95.09" y="48">.</tspan></text><rect class="cls-21" width="437.62" height="328.85"/></g></g></svg>