<svg xmlns="http://www.w3.org/2000/svg" viewBox="0 0 514.68 449.18"><defs><style>.cls-1{fill:#fff;}.cls-1,.cls-2{stroke:#231f20;stroke-miterlimit:10;}.cls-2{fill:none;}.cls-3{font-size:12px;font-family:MyriadPro-Regular, Myriad Pro;}.cls-3,.cls-5{fill:#231f20;}.cls-4{letter-spacing:-0.01em;}.cls-6{letter-spacing:-0.02em;}.cls-7{letter-spacing:-0.01em;}.cls-8{letter-spacing:0.01em;}.cls-9{letter-spacing:0em;}.cls-10{letter-spacing:-0.01em;}.cls-11{fill:#58595b;}.cls-12{fill:#00aeef;}</style></defs><title>Asset 1</title><g id="Layer_2" data-name="Layer 2"><g id="Layer_1-2" data-name="Layer 1"><rect class="cls-1" x="0.5" y="81.86" width="100.86" height="115.88"/><rect class="cls-2" x="14.23" y="97.74" width="75.11" height="38.2"/><rect class="cls-2" x="14.23" y="145.81" width="75.11" height="38.2"/><text class="cls-3" transform="translate(28.14 120.15)">X_p(<tspan class="cls-4" x="23.09" y="0">k</tspan><tspan x="28.6" y="0">-1)</tspan></text><text class="cls-3" transform="translate(28.14 168.86)">X_p(<tspan class="cls-4" x="23.09" y="0">k</tspan><tspan x="28.6" y="0">-1)</tspan></text><line class="cls-5" x1="89.34" y1="116.84" x2="188.91" y2="116.84"/><polygon class="cls-5" points="89.34 117.24 183.22 117.24 183.22 120.13 188.91 116.84 183.22 113.55 183.22 116.44 89.34 116.44 89.34 117.24"/><line class="cls-5" x1="89.34" y1="164.91" x2="188.91" y2="164.91"/><polygon class="cls-5" points="89.34 165.31 183.22 165.31 183.22 168.2 188.91 164.91 183.22 161.62 183.22 164.51 89.34 164.51 89.34 165.31"/><ellipse class="cls-2" cx="232.47" cy="116.84" rx="43.56" ry="17.38"/><ellipse class="cls-2" cx="232.47" cy="164.91" rx="43.56" ry="17.38"/><line class="cls-5" x1="276.04" y1="164.91" x2="375.61" y2="164.91"/><polygon class="cls-5" points="276.04 165.31 369.91 165.31 369.91 168.2 375.61 164.91 369.91 161.62 369.91 164.51 276.04 164.51 276.04 165.31"/><line class="cls-5" x1="276.04" y1="116.84" x2="375.61" y2="116.84"/><polygon class="cls-5" points="276.04 117.24 369.91 117.24 369.91 120.13 375.61 116.84 369.91 113.55 369.91 116.44 276.04 116.44 276.04 117.24"/><rect class="cls-1" x="375.61" y="81.86" width="100.86" height="115.88"/><rect class="cls-2" x="389.34" y="97.74" width="75.11" height="38.2"/><rect class="cls-2" x="389.34" y="145.81" width="75.11" height="38.2"/><text class="cls-3" transform="translate(410.11 120.15)">X_p(k)</text><text class="cls-3" transform="translate(410.11 168.86)">X_p(k)</text><text class="cls-3" transform="translate(215.74 120.15)"><tspan class="cls-6">P</tspan><tspan class="cls-7" x="6.19" y="0">r</tspan><tspan x="10" y="0">edi</tspan><tspan class="cls-8" x="25.58" y="0">c</tspan><tspan x="31.12" y="0">t</tspan></text><text class="cls-3" transform="translate(215.74 168.86)"><tspan class="cls-6">P</tspan><tspan class="cls-7" x="6.19" y="0">r</tspan><tspan x="10" y="0">edi</tspan><tspan class="cls-8" x="25.58" y="0">c</tspan><tspan x="31.12" y="0">t</tspan></text><circle class="cls-2" cx="129.68" cy="45.92" r="25"/><circle class="cls-2" cx="342.09" cy="45.92" r="25"/><circle class="cls-2" cx="271.28" cy="45.92" r="25"/><circle class="cls-2" cx="200.48" cy="45.92" r="25"/><path class="cls-5" d="M129.28,70.9a266,266,0,0,0,.86,31.31,119.56,119.56,0,0,0,2.34,15.5,51.05,51.05,0,0,0,2.26,7.54,19.3,19.3,0,0,0,4.18,6.75,84.75,84.75,0,0,0,12.4,9.61c2.19,1.44,4.49,2.7,6.8,3.93s4.71,2.31,7.15,3.26a63.71,63.71,0,0,0,15.15,4.08l10.74,1.59-.36,2.87,6-2.43-5.23-4.09-.36,2.87-10.72-1.59a63.71,63.71,0,0,1-15-4c-2.41-.95-4.76-2.07-7.08-3.23s-4.56-2.47-6.73-3.9a84.44,84.44,0,0,1-12.29-9.52,18.49,18.49,0,0,1-4-6.46,49.93,49.93,0,0,1-2.23-7.42,120.85,120.85,0,0,1-2.32-15.41,266.25,266.25,0,0,1-.85-31.2Z"/><path class="cls-5" d="M129.53,99.83a117.23,117.23,0,0,0,14.26,4.48c4.83,1.17,9.71,2.17,14.61,3s9.83,1.55,14.76,2.16c2.47.29,4.94.58,7.41.83l5.27.5-.25,2.88q3-1.38,6-2.84c-1.83-1.21-3.62-2.46-5.4-3.71l-.25,2.88-5.26-.5q-3.71-.37-7.39-.83c-4.93-.6-9.83-1.33-14.72-2.15s-9.75-1.84-14.56-3a117.31,117.31,0,0,1-14.15-4.45Z"/><polygon class="cls-5" points="200.1 71.03 207.56 96.71 204.78 97.51 209.53 102.07 211.1 95.68 208.32 96.49 200.86 70.81 200.1 71.03"/><polygon class="cls-5" points="270.92 70.76 259.33 96.7 256.69 95.53 257.37 102.07 262.69 98.21 260.05 97.03 271.65 71.08 270.92 70.76"/><path class="cls-5" d="M341.69,71a298.58,298.58,0,0,1,1.3,33.83,85.21,85.21,0,0,1-1.82,16.74,24,24,0,0,1-1.33,3.94,24.29,24.29,0,0,1-2.16,3.56l-.6.85c-.21.28-.46.52-.69.79-.46.51-.91,1.05-1.4,1.55a37.58,37.58,0,0,1-3.15,2.75,59.57,59.57,0,0,1-14.69,8.14,125,125,0,0,1-16.09,5.16c-5.46,1.41-11,2.49-16.56,3.5l-11.56,2.08-.49-2.84-2.51,2.09-1.26,1-.64.5-.15.12c0,.06-.13,0-.07.36a.35.35,0,0,1,.05.08h0s0,0,0,0,0,0,0,0l.07-.07.14-.15c-.15,0-.22-.1-.46,0h0a.26.26,0,0,0-.08.11.23.23,0,0,0,.05.22.34.34,0,0,0,.14.09l.08,0,.11,0,.2.09.78.31,1.55.59,3.11,1.15-.49-2.85,11.56-2.09c5.56-1,11.13-2.1,16.62-3.51a126.58,126.58,0,0,0,16.19-5.2,60.69,60.69,0,0,0,14.88-8.24,39.14,39.14,0,0,0,3.22-2.82c.5-.52,1-1.07,1.45-1.6.23-.27.49-.52.7-.81l.63-.88a25.38,25.38,0,0,0,2.23-3.68,25.19,25.19,0,0,0,1.37-4.09,84.52,84.52,0,0,0,1.85-16.91,300.25,300.25,0,0,0-1.3-33.93Z"/><text class="cls-3" transform="translate(120.89 49.24)">F(k)</text><text class="cls-3" transform="translate(191.56 49.24)">B(k)</text><text class="cls-3" transform="translate(261.41 48.92)">U(k)</text><text class="cls-3" transform="translate(331.62 48.92)">Q(k)</text><rect class="cls-1" x="0.5" y="284.94" width="100.86" height="115.88"/><rect class="cls-2" x="14.23" y="300.82" width="75.11" height="38.2"/><rect class="cls-2" x="14.23" y="348.89" width="75.11" height="38.2"/><text class="cls-3" transform="translate(33.24 323.23)">X_p(k)</text><text class="cls-3" transform="translate(33.24 371.94)">X_p(k)</text><line class="cls-5" x1="89.34" y1="319.92" x2="188.91" y2="319.92"/><polygon class="cls-5" points="89.34 320.32 183.22 320.32 183.22 323.21 188.91 319.92 183.22 316.63 183.22 319.52 89.34 319.52 89.34 320.32"/><line class="cls-5" x1="89.34" y1="367.99" x2="188.91" y2="367.99"/><polygon class="cls-5" points="89.34 368.39 183.22 368.39 183.22 371.28 188.91 367.99 183.22 364.7 183.22 367.59 89.34 367.59 89.34 368.39"/><ellipse class="cls-2" cx="232.47" cy="319.92" rx="43.56" ry="17.38"/><ellipse class="cls-2" cx="232.47" cy="367.99" rx="43.56" ry="17.38"/><line class="cls-5" x1="276.04" y1="367.99" x2="375.61" y2="367.99"/><polygon class="cls-5" points="276.04 368.39 369.91 368.39 369.91 371.28 375.61 367.99 369.91 364.7 369.91 367.59 276.04 367.59 276.04 368.39"/><line class="cls-5" x1="276.04" y1="319.92" x2="375.61" y2="319.92"/><polygon class="cls-5" points="276.04 320.32 369.91 320.32 369.91 323.21 375.61 319.92 369.91 316.63 369.91 319.52 276.04 319.52 276.04 320.32"/><rect class="cls-1" x="375.61" y="284.94" width="100.86" height="115.88"/><rect class="cls-2" x="389.34" y="300.82" width="75.11" height="38.2"/><rect class="cls-2" x="389.34" y="348.89" width="75.11" height="38.2"/><text class="cls-3" transform="translate(410.11 323.23)">X_u(k)</text><text class="cls-3" transform="translate(410.11 371.94)">X_u(k)</text><text class="cls-3" transform="translate(213.69 323.23)">Upd<tspan class="cls-9" x="21.36" y="0">a</tspan><tspan class="cls-10" x="27.1" y="0">t</tspan><tspan x="31" y="0">e</tspan></text><text class="cls-3" transform="translate(213.69 371.94)">Upd<tspan class="cls-9" x="21.36" y="0">a</tspan><tspan class="cls-10" x="27.1" y="0">t</tspan><tspan x="31" y="0">e</tspan></text><circle class="cls-2" cx="129.68" cy="249" r="25"/><circle class="cls-2" cx="186.64" cy="423.68" r="25"/><circle class="cls-2" cx="271.28" cy="249" r="25"/><circle class="cls-2" cx="200.48" cy="249" r="25"/><path class="cls-5" d="M129.28,274a266,266,0,0,0,.86,31.31,119.56,119.56,0,0,0,2.34,15.5,51.05,51.05,0,0,0,2.26,7.54,19.3,19.3,0,0,0,4.18,6.75,84.75,84.75,0,0,0,12.4,9.61c2.19,1.44,4.49,2.7,6.8,3.93s4.71,2.31,7.15,3.26A63.71,63.71,0,0,0,180.42,356l10.74,1.59-.36,2.87,6-2.43-5.23-4.09-.36,2.87-10.72-1.59a63.71,63.71,0,0,1-15-4c-2.41-.95-4.76-2.07-7.08-3.23s-4.56-2.47-6.73-3.9a84.44,84.44,0,0,1-12.29-9.52,18.49,18.49,0,0,1-4-6.46,49.93,49.93,0,0,1-2.23-7.42,120.85,120.85,0,0,1-2.32-15.41,266.25,266.25,0,0,1-.85-31.2Z"/><path class="cls-5" d="M129.53,302.91a117.23,117.23,0,0,0,14.26,4.48c4.83,1.17,9.71,2.17,14.61,3s9.83,1.55,14.76,2.16c2.47.29,4.94.58,7.41.83l5.27.5-.25,2.88q3-1.38,6-2.84c-1.83-1.21-3.62-2.46-5.4-3.71l-.25,2.88-5.26-.5c-2.47-.25-4.93-.54-7.39-.83-4.93-.6-9.83-1.33-14.72-2.15s-9.75-1.84-14.56-3a117.31,117.31,0,0,1-14.15-4.45Z"/><polygon class="cls-5" points="270.92 273.84 259.33 299.79 256.69 298.61 257.37 305.15 262.69 301.29 260.05 300.11 271.65 274.16 270.92 273.84"/><text class="cls-3" transform="translate(120.89 252.32)">H(k)</text><text class="cls-3" transform="translate(184.75 252.32)">R_o(k)</text><text class="cls-3" transform="translate(255.63 252.32)">Z_o(k)</text><text class="cls-3" transform="translate(178.37 427.57)">K(k)</text><path class="cls-5" d="M130.44,308.29c2.48,18.39,5.14,36.74,8.47,55l1.32,6.84c.5,2.27.92,4.55,1.48,6.8l.81,3.39,1,3.37c.3,1.12.8,2.21,1.2,3.31s1,2.11,1.48,3.16c2,4.16,4.22,8.35,7.41,11.84a18.74,18.74,0,0,0,5.63,4.27c.53.25,1.1.45,1.64.67.14.05.28.12.42.16l.32.08h0l.17.05L161,410a18.63,18.63,0,0,0,6.54-2.47,15.24,15.24,0,0,1-4.72-3.85l-.8,2.78-.17-.05h0l-.3-.08a2.74,2.74,0,0,1-.4-.15c-.52-.21-1.06-.4-1.57-.64a17.91,17.91,0,0,1-5.39-4.09c-3.09-3.37-5.27-7.5-7.28-11.65-.5-1-1-2.08-1.47-3.14l-.61-1.6a14.69,14.69,0,0,1-.55-1.62l-1-3.33-.81-3.37c-.55-2.24-1-4.52-1.47-6.78l-1.32-6.82c-3.32-18.23-6-36.59-8.46-55Z"/><path class="cls-5" d="M110.57,368.39c6.11.36,12.41,2,17.32,5.73a10.14,10.14,0,0,1,.91.71l.83.79a17.1,17.1,0,0,1,2.82,3.59,16.46,16.46,0,0,1,1.07,2,63.55,63.55,0,0,1,3.24,8.74c.92,3,1.73,6,2.71,9a32.7,32.7,0,0,0,4,8.58A20.94,20.94,0,0,0,145,409.4a11.9,11.9,0,0,0,1.87,1.53c.34.22.67.45,1,.65l1.05.54c.71.36,1.43.68,2.16,1a35.84,35.84,0,0,0,4.48,1.53c.38.11.77.21,1.15.3l.55.13.18,0-.62,2.82a31.31,31.31,0,0,0,6.34-2.48,28.41,28.41,0,0,1-4.94-3.94l-.61,2.82-.18,0-.53-.12c-.38-.09-.76-.18-1.13-.29a35.33,35.33,0,0,1-4.38-1.5c-.72-.3-1.42-.62-2.11-1l-1-.52c-.33-.2-.64-.42-1-.62a11.39,11.39,0,0,1-1.75-1.43,20.47,20.47,0,0,1-1.47-1.74,32.1,32.1,0,0,1-3.88-8.37c-1-3-1.79-6-2.71-9a65.8,65.8,0,0,0-3.28-8.85,17.58,17.58,0,0,0-1.11-2.1,12.14,12.14,0,0,0-1.35-2,12.87,12.87,0,0,0-1.6-1.78l-.86-.82a10.9,10.9,0,0,0-.94-.74,27.2,27.2,0,0,0-8.47-4.25,38.7,38.7,0,0,0-9.32-1.65Z"/><path class="cls-5" d="M200.1,273.89a86.59,86.59,0,0,1-3.14,8.73c-.57,1.44-1.24,2.84-1.85,4.26s-1.32,2.8-2,4.17a121.65,121.65,0,0,1-9.65,15.87A103.3,103.3,0,0,1,171.34,321c-1.1,1.09-2.21,2.17-3.31,3.3L166.38,326c-.54.57-1,1.2-1.51,1.79l-1.5,1.81L162,331.5c-.43.65-.92,1.28-1.31,1.95l-1.17,2a55.66,55.66,0,0,0-3.86,8.55c-.45,1.5-1,3-1.32,4.5s-.75,3-1,4.6a57.84,57.84,0,0,0-.18,18.69,41.19,41.19,0,0,0,2.5,9.05,52.18,52.18,0,0,0,4.2,8.39,72.88,72.88,0,0,0,5.43,7.64c.49.61,1,1.2,1.51,1.79l.7.8.12.14-2.15,1.93a57.18,57.18,0,0,0,6.44,1.86,52.46,52.46,0,0,1-1.55-6.26l-2.15,1.94-.12-.14-.69-.79c-.51-.58-1-1.17-1.49-1.77a70.33,70.33,0,0,1-5.37-7.56,51.88,51.88,0,0,1-4.15-8.26,40.17,40.17,0,0,1-2.44-8.88,56.67,56.67,0,0,1,.17-18.44c.21-1.53.61-3,.94-4.53s.87-3,1.31-4.44a54.92,54.92,0,0,1,3.8-8.42l1.15-2c.39-.67.87-1.28,1.29-1.92l1.32-1.9,1.48-1.78c.5-.59,1-1.21,1.49-1.77l1.62-1.64c1.08-1.1,2.19-2.2,3.31-3.29a104.88,104.88,0,0,0,12.17-14.19,123.61,123.61,0,0,0,9.71-16c.72-1.38,1.36-2.8,2.05-4.2s1.29-2.84,1.86-4.29a86.47,86.47,0,0,0,3.18-8.82Z"/><path class="cls-5" d="M180.64,399.39A134.43,134.43,0,0,1,177.17,381,78,78,0,0,1,177,362.4a33.37,33.37,0,0,1,2.37-8.93,19,19,0,0,1,2.37-3.92c1-1.19,2-2.37,3.07-3.52q3.14-3.46,6.6-6.61c1.16-1,2.34-2,3.56-3l.93-.71.44-.33.15-.1,1.7,2.34a30.19,30.19,0,0,1,2.9-5.65,32.91,32.91,0,0,0-6.77.33l1.7,2.34-.15.11-.45.33-.94.72q-1.85,1.45-3.6,3a93,93,0,0,0-6.66,6.66c-1.06,1.16-2.1,2.32-3.1,3.56a19.55,19.55,0,0,0-2.47,4.08,34,34,0,0,0-2.44,9.15,79.07,79.07,0,0,0,.19,18.83,134.17,134.17,0,0,0,3.5,18.49Z"/><path class="cls-5" d="M189.31,398.63a23.83,23.83,0,0,1,1.19-8.42,31.8,31.8,0,0,1,1.55-4c.3-.66.65-1.28,1-1.93.17-.31.37-.61.55-.93l.31-.52,2.47,1.51a30,30,0,0,1,.1-3.13c.08-1.06.24-2.12.4-3.22-1,.4-2,.81-3.07,1.3s-2.07,1-3.05,1.62l2.47,1.5-.32.54c-.18.32-.38.63-.55.95-.33.66-.69,1.3-1,2a33.55,33.55,0,0,0-1.59,4.11,24.52,24.52,0,0,0-1.22,8.74Z"/><path class="cls-11" d="M426.1,197.78a8,8,0,0,1-.7,2.92l-.32.73-.4.68-.4.68c-.15.22-.33.42-.49.63a16.76,16.76,0,0,1-2.19,2.35c-.4.36-.86.66-1.29,1a9.59,9.59,0,0,1-1.33.93,38.19,38.19,0,0,1-12.29,4.71,66.11,66.11,0,0,1-6.58,1.17c-1.09.2-2.21.25-3.32.36l-3.34.28c-4.47.22-8.94.3-13.45.26l-54-.21c-36-.09-72,0-108.06.41-18,.23-36,.56-54,1.09s-36,1.24-54,2.63c-4.5.35-9,.76-13.48,1.29A108.5,108.5,0,0,0,83,222c-.56.14-1.11.28-1.67.47a16.75,16.75,0,0,0-1.66.61c-1.1.47-2,1-3.07,1.54s-2,1.12-3,1.69-1.95,1.18-2.88,1.86A35.53,35.53,0,0,0,61,237.78a58.26,58.26,0,0,0-5.81,12.36,73.61,73.61,0,0,0-3.35,13.22c-.19,1.12-.34,2.24-.47,3.37s-.25,2.26-.35,3.39l-.21,3,0,.36L45,273.25a85,85,0,0,0,6.77,11.69,78.05,78.05,0,0,1,6.37-11.07l-5.78-.27,0-.36.21-3c.1-1.11.19-2.22.34-3.33s.28-2.21.47-3.31a71.66,71.66,0,0,1,3.28-12.93,56.67,56.67,0,0,1,5.63-12,33.6,33.6,0,0,1,9.33-9.23c.89-.66,1.86-1.21,2.79-1.81s1.92-1.12,2.9-1.65,2-1.08,3-1.48a13.46,13.46,0,0,1,1.51-.56c.51-.18,1-.31,1.58-.45a108.83,108.83,0,0,1,13.2-2.21c4.46-.53,8.93-.94,13.41-1.29,17.93-1.39,35.93-2.07,53.92-2.62s36-.86,54-1.09c36-.45,72-.51,108-.41l54,.21c4.49,0,9,0,13.55-.27l3.39-.28c1.13-.11,2.26-.16,3.38-.37,2.25-.37,4.51-.6,6.72-1.19A39.61,39.61,0,0,0,419.83,209a11.82,11.82,0,0,0,1.43-1c.46-.36.95-.68,1.38-1.08a18.41,18.41,0,0,0,2.41-2.58c.18-.23.37-.46.54-.7l.46-.77.45-.77.36-.83a9.28,9.28,0,0,0,.83-3.6Z"/><path class="cls-12" d="M427.69,284.92A61.43,61.43,0,0,1,429,273.28,81.29,81.29,0,0,1,432.28,262a75.83,75.83,0,0,1,11.52-20.47c1.27-1.49,2.47-3.06,3.81-4.49l4.13-4.21,4.47-3.85c1.48-1.29,3.08-2.52,4.61-3.79a228,228,0,0,0,17.69-16.07c11.11-11.41,21.05-24.19,27.89-38.71a90.63,90.63,0,0,0,7.23-22.85c.1-.49.2-1,.28-1.48l.17-1.49.34-3,.16-1.5c0-.5,0-1,.06-1.52a27.83,27.83,0,0,0,0-3c-.08-1-.08-2-.22-3l-.38-3c-.38-2-.7-4-1.23-5.9a116.91,116.91,0,0,0-8.34-22.45,172.54,172.54,0,0,0-11.84-20.78,182.26,182.26,0,0,0-31.13-36.19,118.56,118.56,0,0,0-19.41-14c-.87-.49-1.73-1-2.61-1.47l-2.69-1.35c-1.77-.94-3.66-1.64-5.5-2.45-.92-.4-1.88-.68-2.82-1s-1.88-.72-2.86-1c-1.94-.52-3.88-1.1-5.81-1.51-15.48-3.61-31-7-46.67-9.85a677.23,677.23,0,0,0-94.71-11c-4-.12-8-.34-11.93-.38L254.55,0,242.62.17c-2,0-4,.09-6,.18l-6,.25c-4,.15-7.94.37-11.91.61l-11.89.72Q195,2.67,183.1,3.57c-15.85,1.23-31.69,2.72-47.44,5-7.87,1.16-15.72,2.54-23.5,4.31-1.94.42-3.87.95-5.81,1.41s-3.86,1-5.76,1.63a113.91,113.91,0,0,0-11.31,4,73,73,0,0,0-10.76,5.38,45.4,45.4,0,0,0-9.44,7.55,24,24,0,0,0-2,2.31c-.61.8-1.29,1.55-1.84,2.4a59.07,59.07,0,0,0-3.21,5.11A77.53,77.53,0,0,0,57,53.54,111.54,111.54,0,0,0,53.36,65l-.73,2.91L52.15,70l0,.08-.08.36L46.4,69.25a114.67,114.67,0,0,0,4.53,12.61A109.57,109.57,0,0,1,59.25,72L53.6,70.8l.08-.35,0-.08.47-2.13.73-2.87a105.93,105.93,0,0,1,3.58-11.26,75.69,75.69,0,0,1,5-10.69c.92-1.74,2-3.34,3.12-5,.53-.82,1.2-1.54,1.79-2.32a22.16,22.16,0,0,1,1.89-2.22,43.71,43.71,0,0,1,9.11-7.28,70.85,70.85,0,0,1,10.53-5.26,114.5,114.5,0,0,1,11.17-3.92c1.88-.59,3.8-1.06,5.7-1.6s3.83-1,5.77-1.4c7.72-1.76,15.53-3.13,23.37-4.29,15.69-2.28,31.51-3.77,47.33-5,31.67-2.22,63.4-4.67,95.12-3a674.43,674.43,0,0,1,94.49,11c15.61,2.88,31.13,6.22,46.6,9.83,1.95.42,3.82,1,5.71,1.49.95.24,1.86.63,2.79.93s1.87.62,2.77,1c1.79.79,3.64,1.47,5.38,2.4l2.64,1.32c.87.46,1.72,1,2.58,1.45a117.41,117.41,0,0,1,19.15,13.84A181.31,181.31,0,0,1,491.3,81.23,172.4,172.4,0,0,1,503,101.83,115.43,115.43,0,0,1,511.26,124c.52,1.9.83,3.84,1.2,5.77l.38,2.91c.13,1,.13,1.95.2,2.92a23.71,23.71,0,0,1,0,2.92c0,.48,0,1,0,1.45l-.16,1.47-.33,2.93-.17,1.46c-.08.49-.18,1-.27,1.45A88.8,88.8,0,0,1,505,169.7c-6.73,14.3-16.56,27-27.58,38.27a225.14,225.14,0,0,1-17.57,16c-1.53,1.26-3.08,2.46-4.6,3.78l-4.55,3.92-4.22,4.29c-1.37,1.47-2.59,3.07-3.89,4.59a77.17,77.17,0,0,0-11.75,20.9A71.28,71.28,0,0,0,426.1,285Z"/></g></g></svg>