<svg xmlns="http://www.w3.org/2000/svg" viewBox="0 0 313.93 90.02"><defs><style>.cls-1{fill:none;stroke:#231f20;stroke-miterlimit:10;}.cls-2,.cls-5{font-size:12px;font-family:MyriadPro-Regular, Myriad Pro;}.cls-2,.cls-4,.cls-5{fill:#231f20;}.cls-2{letter-spacing:0.01em;}.cls-3{letter-spacing:0em;}.cls-6{letter-spacing:-0.04em;}.cls-7{letter-spacing:-0.01em;}.cls-8{letter-spacing:0em;}.cls-9{letter-spacing:-0.01em;}.cls-10{letter-spacing:0em;}.cls-11{letter-spacing:0.01em;}.cls-12{letter-spacing:0em;}.cls-13{letter-spacing:0em;}.cls-14{letter-spacing:0em;}</style></defs><title>Asset 2</title><g id="Layer_2" data-name="Layer 2"><g id="Layer_1-2" data-name="Layer 1"><rect class="cls-1" x="58.06" y="33.9" width="75.11" height="38.2"/><text class="cls-2" transform="translate(76.16 56.52)">S<tspan class="cls-3" x="5.99" y="0">ensor</tspan></text><line class="cls-4" x1="134.02" y1="52.99" x2="195.06" y2="52.99"/><polygon class="cls-4" points="134.02 53.39 189.37 53.39 189.37 56.28 195.06 52.99 189.37 49.7 189.37 52.6 134.02 52.6 134.02 53.39"/><rect class="cls-1" x="193.84" y="33.9" width="75.11" height="38.2"/><text class="cls-5" transform="translate(221.55 50.78)"><tspan class="cls-6">L</tspan><tspan x="5.2" y="0">QR </tspan><tspan class="cls-7" x="-13.76" y="14.4">C</tspan><tspan x="-6.94" y="14.4">o</tspan><tspan class="cls-8" x="-0.35" y="14.4">n</tspan><tspan class="cls-3" x="6.26" y="14.4">t</tspan><tspan class="cls-9" x="10.24" y="14.4">r</tspan><tspan x="14.04" y="14.4">oller</tspan></text><path class="cls-4" d="M269.09,53.39h44.75s.07,0,.09,0V0a2.3,2.3,0,0,0-.46,0H91.74s0,.11,0,.15V28.2h-2.9L91.59,33l.52.91.53-.91L95.4,28.2H92.51V.91s0-.1,0-.12H312.77a2.17,2.17,0,0,1,.37,0V52.59H269.09Z"/><text class="cls-5" transform="translate(161.26 14.02)"><tspan class="cls-7">C</tspan><tspan x="6.83" y="0">o</tspan><tspan class="cls-10" x="13.42" y="0">n</tspan><tspan class="cls-3" x="20.03" y="0">t</tspan><tspan class="cls-9" x="24" y="0">r</tspan><tspan x="27.8" y="0">ol </tspan><tspan class="cls-11" x="39.77" y="0">I</tspan><tspan x="42.76" y="0">npu</tspan><tspan class="cls-12" x="62.85" y="0">t</tspan><tspan x="66.79" y="0">, u(t)</tspan></text><text class="cls-5" transform="translate(71.26 28.31)">θ(t)</text><line class="cls-4" y1="52.99" x2="58.06" y2="52.99"/><polygon class="cls-4" points="0 53.39 52.36 53.39 52.36 56.28 58.06 52.99 52.36 49.7 52.36 52.6 0 52.6 0 53.39"/><text class="cls-5" transform="translate(11.97 47.53)">θ_nc(t)</text><text class="cls-5" transform="translate(27.87 87.02)">θ_nc(t) = 1.2 θ_nc(<tspan class="cls-13" x="92.66" y="0">t</tspan><tspan class="cls-14" x="96.57" y="0">-1)</tspan></text></g></g></svg>