<svg xmlns="http://www.w3.org/2000/svg" viewBox="0 0 344.87 252.91"><defs><style>.cls-1{fill:#39b54a;stroke:#009444;stroke-miterlimit:10;}.cls-2,.cls-6,.cls-7{fill:#58595b;}.cls-3,.cls-6{font-size:15px;}.cls-3{fill:#fff;}.cls-3,.cls-6,.cls-7{font-family:MyriadPro-Regular, Myriad Pro;}.cls-4,.cls-5{font-size:10px;}.cls-5{letter-spacing:0em;}.cls-7{font-size:15.87px;}.cls-8{font-size:10.58px;}</style></defs><title>Asset 1</title><g id="Layer_2" data-name="Layer 2"><g id="Layer_1-2" data-name="Layer 1"><circle class="cls-1" cx="175.51" cy="57.98" r="24.57"/><circle class="cls-1" cx="64.45" cy="193.33" r="24.57"/><circle class="cls-1" cx="286.57" cy="193.33" r="24.57"/><polygon class="cls-2" points="74.99 170.94 151.39 75.26 149.66 74.78 155.18 71.78 153.48 77.83 152.63 76.25 76.23 171.94 74.99 170.94"/><polygon class="cls-2" points="164.02 79.15 87.35 174.61 89.08 175.1 83.55 178.08 85.27 172.04 86.11 173.62 162.78 78.15 164.02 79.15"/><polygon class="cls-2" points="88.31 187.27 259.15 187.27 258.45 185.62 264.24 188.06 258.45 190.5 259.15 188.86 88.31 188.86 88.31 187.27"/><polygon class="cls-2" points="262 198.86 94.11 198.86 94.81 200.51 89.02 198.07 94.81 195.62 94.11 197.27 262 197.27 262 198.86"/><polygon class="cls-2" points="196.42 71.23 283.67 164.5 284.4 162.86 286.57 168.76 280.83 166.2 282.51 165.58 195.26 72.32 196.42 71.23"/><polygon class="cls-2" points="274.83 171.98 191.68 82.91 190.95 84.55 188.79 78.65 194.52 81.21 192.84 81.83 275.99 170.9 274.83 171.98"/><text class="cls-3" transform="translate(157.52 62.81)">R=S <tspan class="cls-4" x="27.58" y="0">1</tspan></text><text class="cls-3" transform="translate(270.19 198.07)">O=S <tspan class="cls-4" x="29.85" y="0">2</tspan></text><text class="cls-3" transform="translate(45.72 198.07)">M=S <tspan class="cls-5" x="31.57" y="0">3</tspan></text><text class="cls-6" transform="translate(226.26 97.16) rotate(47.43)">p<tspan class="cls-4" x="8.53" y="0">12 </tspan><tspan x="20.91" y="0">= 0.5</tspan></text><text class="cls-6" transform="translate(205.26 113.16) rotate(47.43)">p<tspan class="cls-4" x="8.53" y="0">21 </tspan><tspan x="20.91" y="0">= 0</tspan></text><text class="cls-6" transform="translate(97.05 134.94) rotate(-50.22)">p<tspan class="cls-4" x="8.53" y="0">31 </tspan><tspan x="20.91" y="0">= 0.5</tspan></text><text class="cls-6" transform="matrix(0.64, -0.76, 0.76, 0.64, 121.12, 151.34)">p<tspan class="cls-4" x="8.53" y="0">13 </tspan><tspan x="20.91" y="0">= 0.1</tspan></text><text class="cls-7" transform="translate(148.74 182.84)">p<tspan class="cls-8" x="9.03" y="0">32 </tspan><tspan x="22.13" y="0">= 0</tspan></text><text class="cls-7" transform="translate(148.74 211.9)">p<tspan class="cls-8" x="9.03" y="0">23 </tspan><tspan x="22.13" y="0">= 0.3</tspan></text><path class="cls-2" d="M153.09,48.36c-5-1.08-10-2.33-14.94-3.79a83.78,83.78,0,0,1-14.47-5.51,22.29,22.29,0,0,1-3.36-2.13,6.72,6.72,0,0,1-2.56-3.44,3.43,3.43,0,0,1,.32-2.4,5.83,5.83,0,0,1,1.42-1.7A14.75,14.75,0,0,1,123,27.32a76.3,76.3,0,0,1,14.9-4.3,191.33,191.33,0,0,1,30.67-2.79,242.86,242.86,0,0,1,30.74,1.39c1.28.15,2.56.26,3.83.44l3.81.56c2.55.33,5.07.85,7.6,1.33l1.89.37,1.88.45,3.75.91c1.25.33,2.47.75,3.71,1.11s2.47.72,3.7,1.22A14.43,14.43,0,0,1,233,30a4.77,4.77,0,0,1,1.45,1.79,3.05,3.05,0,0,1,0,2.46A5.56,5.56,0,0,1,233.1,36a11.15,11.15,0,0,1-1.59,1.28,26.78,26.78,0,0,1-3.44,1.95,97.68,97.68,0,0,1-14.55,5.25c-2.47.71-5,1.37-7.44,2l-2,.49-.39.09-.77.19L204,48.68c-2.09-.34-4.16-.7-6.22-1.1q2.58-1.78,5.08-3.65l-.3,1.76.77-.18.39-.09,2-.49q3.7-.93,7.38-2a94.54,94.54,0,0,0,14.29-5.15A25.54,25.54,0,0,0,230.61,36,6.74,6.74,0,0,0,233,33.58a1.51,1.51,0,0,0,0-1.25,3.21,3.21,0,0,0-1-1.14,12.91,12.91,0,0,0-3.16-1.7c-1.14-.47-2.38-.8-3.59-1.18s-2.41-.78-3.64-1.09l-3.71-.9-1.85-.45-1.87-.37c-2.5-.46-5-1-7.52-1.31l-3.78-.56c-1.26-.18-2.53-.29-3.8-.44a243.19,243.19,0,0,0-30.53-1.37,189.64,189.64,0,0,0-30.4,2.76,74.63,74.63,0,0,0-14.54,4.18,13.37,13.37,0,0,0-3.1,1.84,2.59,2.59,0,0,0-1.22,2.54,5.33,5.33,0,0,0,2,2.55,19.85,19.85,0,0,0,3.12,2,83,83,0,0,0,14.17,5.39c4.88,1.44,9.84,2.69,14.81,3.76Z"/><path class="cls-2" d="M307.68,182.41c4.32-2.8,8.72-5.42,13.24-7.88a84.24,84.24,0,0,1,14.13-6.33,21.62,21.62,0,0,1,3.88-.86,6.67,6.67,0,0,1,4.25.62,3.43,3.43,0,0,1,1.47,1.92,5.79,5.79,0,0,1,.2,2.2,14.82,14.82,0,0,1-1,3.93,75.89,75.89,0,0,1-7.5,13.57,190.79,190.79,0,0,1-19.72,23.65A244.07,244.07,0,0,1,293.9,234c-1,.79-2,1.62-3,2.39l-3.09,2.3c-2,1.57-4.19,3-6.31,4.42l-1.6,1.08-1.65,1-3.3,2c-1.11.66-2.28,1.23-3.41,1.84s-2.26,1.24-3.48,1.75a14,14,0,0,1-3.89,1.15,4.74,4.74,0,0,1-2.29-.24,3.15,3.15,0,0,1-1.72-1.77,5.78,5.78,0,0,1-.33-2.2,12.12,12.12,0,0,1,.23-2,27.76,27.76,0,0,1,1-3.81,97.72,97.72,0,0,1,6.59-14c1.24-2.25,2.53-4.48,3.85-6.68l1.06-1.76.21-.34.42-.68-1.78-.26q2.58-1.86,5.17-3.62-.56,3.09-1,6.17l-1-1.45-.42.67-.2.34L272.89,222c-1.31,2.19-2.59,4.39-3.82,6.62a96.69,96.69,0,0,0-6.48,13.75,24.44,24.44,0,0,0-1,3.58,6.75,6.75,0,0,0,0,3.35,1.57,1.57,0,0,0,.87.9,3.21,3.21,0,0,0,1.49.12,12.46,12.46,0,0,0,3.43-1c1.14-.47,2.25-1.12,3.38-1.7s2.25-1.16,3.34-1.8l3.26-2,1.63-1,1.58-1.07c2.1-1.44,4.23-2.83,6.25-4.38l3.07-2.28c1-.77,2-1.59,3-2.38a240.59,240.59,0,0,0,22.58-20.61A189.35,189.35,0,0,0,335,188.68a74.81,74.81,0,0,0,7.33-13.23,13.38,13.38,0,0,0,.89-3.49,2.61,2.61,0,0,0-.93-2.66,5.33,5.33,0,0,0-3.22-.39,20.47,20.47,0,0,0-3.6.81,83.3,83.3,0,0,0-13.83,6.21c-4.47,2.43-8.87,5-13.13,7.8Z"/><path class="cls-2" d="M76.7,214.13q5.33,5.58,10.22,11.54a84.48,84.48,0,0,1,8.87,12.69A21.24,21.24,0,0,1,97.36,242a6.6,6.6,0,0,1,.18,4.28,3.43,3.43,0,0,1-1.6,1.81,6,6,0,0,1-2.13.61,15.4,15.4,0,0,1-4-.24A75.7,75.7,0,0,1,75,243.64,191.1,191.1,0,0,1,48.1,228.7a244.13,244.13,0,0,1-24.64-18.43c-1-.84-2-1.66-2.91-2.52l-2.84-2.61c-1.92-1.7-3.71-3.56-5.53-5.37l-1.36-1.37L9.52,197l-2.59-2.86c-.85-1-1.62-2-2.44-3s-1.64-2-2.37-3.09a13.94,13.94,0,0,1-1.86-3.6,4.7,4.7,0,0,1-.19-2.3,3.12,3.12,0,0,1,1.41-2,5.74,5.74,0,0,1,2.1-.73,11.84,11.84,0,0,1,2-.16,25.65,25.65,0,0,1,3.94.32,97.38,97.38,0,0,1,15,3.85c2.44.79,4.86,1.64,7.27,2.52l1.94.72.37.14.74.28-.07-1.79c1.53,1.45,3.05,2.92,4.52,4.4-2.09,0-4.17.09-6.25.17l1.24-1.29-.74-.28-.37-.14-1.92-.72c-2.4-.87-4.8-1.71-7.22-2.5a96.72,96.72,0,0,0-14.72-3.79,24.6,24.6,0,0,0-3.7-.3,6.75,6.75,0,0,0-3.29.64,1.56,1.56,0,0,0-.72,1,3.17,3.17,0,0,0,.16,1.48,12.54,12.54,0,0,0,1.65,3.18c.68,1,1.52,2,2.3,3s1.57,2,2.4,2.95l2.56,2.82L12,197.31l1.34,1.35c1.81,1.8,3.57,3.63,5.48,5.32l2.81,2.59c.94.85,1.93,1.66,2.9,2.49A241.22,241.22,0,0,0,49,227.37a187.62,187.62,0,0,0,26.7,14.81A74.37,74.37,0,0,0,90,246.9a13.41,13.41,0,0,0,3.6.23,2.6,2.6,0,0,0,2.43-1.41,5.34,5.34,0,0,0-.22-3.24,20.47,20.47,0,0,0-1.47-3.38,82.85,82.85,0,0,0-8.69-12.43c-3.23-3.94-6.62-7.76-10.13-11.44Z"/><text class="cls-6" transform="translate(148.74 12.56)">p<tspan class="cls-4" x="8.53" y="0">11 </tspan><tspan x="20.91" y="0">= 0.4</tspan></text><text class="cls-6" transform="matrix(0.67, -0.74, 0.74, 0.67, 305.67, 249.05)">p<tspan class="cls-4" x="8.53" y="0">22 </tspan><tspan x="20.91" y="0">= 0.7</tspan></text><text class="cls-6" transform="translate(8.18 217.91) rotate(38.48)">p<tspan class="cls-4" x="8.53" y="0">33 </tspan><tspan x="20.91" y="0">= 0.5</tspan></text></g></g></svg>