<svg xmlns="http://www.w3.org/2000/svg" viewBox="0 0 469.86 59.75"><defs><style>.cls-1{fill:#00aeef;stroke:#1b75bc;}.cls-1,.cls-2,.cls-3{stroke-miterlimit:10;}.cls-2{fill:#39b54a;stroke:#009444;}.cls-3{fill:#f15a29;stroke:#ef4136;}.cls-4,.cls-9{fill:#58595b;}.cls-5{fill:none;}.cls-6{fill:#231f20;}.cls-7,.cls-9{font-size:15px;font-family:MyriadPro-Regular, Myriad Pro;}.cls-7{fill:#fff;}.cls-10,.cls-8{font-size:10px;}.cls-10{letter-spacing:0em;}</style></defs><title>Asset 1</title><g id="Layer_2" data-name="Layer 2"><g id="Layer_1-2" data-name="Layer 1"><circle class="cls-1" cx="25.07" cy="31.43" r="24.57"/><circle class="cls-2" cx="129.16" cy="31.43" r="24.57"/><circle class="cls-2" cx="343.31" cy="31.43" r="24.57"/><circle class="cls-3" cx="444.79" cy="31.43" r="24.57"/><polygon class="cls-4" points="49.64 23.31 100.18 23.31 99.48 21.66 105.27 24.1 99.48 26.54 100.18 24.89 49.64 24.89 49.64 23.31"/><polygon class="cls-4" points="366.88 23.31 417.42 23.31 416.72 21.66 422.51 24.1 416.72 26.54 417.42 24.89 366.88 24.89 366.88 23.31"/><polygon class="cls-4" points="153.73 23.31 204.27 23.31 203.57 21.66 209.36 24.1 203.57 26.54 204.27 24.89 153.73 24.89 153.73 23.31"/><polygon class="cls-4" points="263.11 23.31 313.65 23.31 312.95 21.66 318.74 24.1 312.95 26.54 313.65 24.89 263.11 24.89 263.11 23.31"/><polygon class="cls-4" points="207.64 37.83 157.1 37.83 157.8 39.48 152.01 37.03 157.8 34.59 157.1 36.24 207.64 36.24 207.64 37.83"/><polygon class="cls-4" points="105.27 37.83 54.73 37.83 55.43 39.48 49.64 37.03 55.43 34.59 54.73 36.24 105.27 36.24 105.27 37.83"/><polygon class="cls-4" points="318.74 37.83 268.2 37.83 268.9 39.48 263.11 37.03 268.9 34.59 268.2 36.24 318.74 36.24 318.74 37.83"/><polygon class="cls-4" points="422.51 37.83 371.97 37.83 372.67 39.48 366.88 37.03 372.67 34.59 371.97 36.24 422.51 36.24 422.51 37.83"/><rect class="cls-5" x="217.31" y="23.93" width="12.79" height="15"/><rect class="cls-6" x="226.78" y="30.9" width="2.37" height="1.5"/><rect class="cls-6" x="222.52" y="30.9" width="2.37" height="1.5"/><rect class="cls-6" x="218.28" y="30.9" width="2.37" height="1.5"/><rect class="cls-5" x="230.1" y="23.93" width="12.79" height="15"/><rect class="cls-6" x="239.57" y="30.9" width="2.37" height="1.5"/><rect class="cls-6" x="235.31" y="30.9" width="2.37" height="1.5"/><rect class="cls-6" x="231.07" y="30.9" width="2.37" height="1.5"/><rect class="cls-5" x="242.89" y="23.93" width="12.79" height="15"/><rect class="cls-6" x="252.35" y="30.9" width="2.37" height="1.5"/><rect class="cls-6" x="248.1" y="30.9" width="2.37" height="1.5"/><rect class="cls-6" x="243.85" y="30.9" width="2.37" height="1.5"/><text class="cls-7" transform="translate(18.6 35.74)">S <tspan class="cls-8" x="10.57" y="0">0</tspan></text><text class="cls-7" transform="translate(123.53 35.74)">S <tspan class="cls-8" x="10.57" y="0">1</tspan></text><text class="cls-7" transform="translate(332.15 35.74)">S <tspan class="cls-8" x="10.57" y="0">N-1</tspan></text><text class="cls-7" transform="translate(438.84 35.74)">S <tspan class="cls-8" x="10.57" y="0">N</tspan></text><text class="cls-9" transform="translate(56.46 56)">p<tspan class="cls-8" x="8.53" y="0">10 </tspan><tspan x="20.91" y="0">= μ</tspan><tspan class="cls-8" x="41.33" y="0">0</tspan></text><text class="cls-9" transform="translate(56.46 12.56)">p<tspan class="cls-8" x="8.53" y="0">01 </tspan><tspan x="20.91" y="0">= λ</tspan><tspan class="cls-8" x="40.11" y="0">0</tspan></text><text class="cls-9" transform="translate(155.6 12.56)">p<tspan class="cls-8" x="8.53" y="0">12 </tspan><tspan x="20.91" y="0">= λ</tspan><tspan class="cls-8" x="40.11" y="0">1</tspan></text><text class="cls-9" transform="translate(249.99 12.56)">p<tspan class="cls-8" x="8.53" y="0">N-2,N-1 </tspan><tspan x="42.28" y="0">= λ</tspan><tspan class="cls-8" x="61.48" y="0">N-2</tspan></text><text class="cls-9" transform="translate(362.49 12.56)">p<tspan class="cls-8" x="8.53" y="0">N-1,N </tspan><tspan x="34.08" y="0">= λ</tspan><tspan class="cls-10" x="53.28" y="0">N-1</tspan></text><text class="cls-9" transform="translate(159.48 56)">p<tspan class="cls-8" x="8.53" y="0">21 </tspan><tspan x="20.91" y="0">= μ</tspan><tspan class="cls-8" x="41.33" y="0">2</tspan></text><text class="cls-9" transform="translate(247.41 56)">p<tspan class="cls-8" x="8.53" y="0">N-1,N-2 </tspan><tspan x="42.28" y="0">= μ</tspan><tspan class="cls-10" x="62.7" y="0">N-1</tspan></text><text class="cls-9" transform="translate(362.49 56)">p<tspan class="cls-8" x="8.53" y="0">N,N-1 </tspan><tspan x="34.08" y="0">= μ</tspan><tspan class="cls-8" x="54.5" y="0">N</tspan></text></g></g></svg>